<?xml version="1.0" encoding="us-ascii" standalone="no"?><svg xmlns="http://www.w3.org/2000/svg" xmlns:xlink="http://www.w3.org/1999/xlink" contentStyleType="text/css" height="1891px" preserveAspectRatio="none" style="width:1341px;height:1891px;background:#003153;" version="1.1" viewBox="0 0 1341 1891" width="1341px" zoomAndPan="magnify"><defs/><g><rect fill="#003153" height="1891" style="stroke:none;stroke-width:1.0;" width="1341" x="0" y="0"/><text fill="#D9D3D0" font-family="Verdana" font-size="22" font-weight="bold" lengthAdjust="spacing" textLength="717" x="310.75" y="35.4209">Authentication Flow - Registration, Login, Token Refresh</text><rect fill="#003153" height="348.7266" style="stroke:#D9D3D0;stroke-width:1.0;" width="10" x="233" y="203.1719"/><rect fill="#003153" height="437.2578" style="stroke:#D9D3D0;stroke-width:1.0;" width="10" x="233" y="641.2969"/><rect fill="#003153" height="232.1953" style="stroke:#D9D3D0;stroke-width:1.0;" width="10" x="233" y="1167.9531"/><rect fill="#003153" height="285.1953" style="stroke:#D9D3D0;stroke-width:1.0;" width="10" x="233" y="1489.5469"/><rect fill="#003153" height="260.1953" style="stroke:#D9D3D0;stroke-width:1.0;" width="10" x="511" y="247.4375"/><rect fill="#003153" height="333.5938" style="stroke:#D9D3D0;stroke-width:1.0;" width="10" x="511" y="685.5625"/><rect fill="#003153" height="143.6641" style="stroke:#D9D3D0;stroke-width:1.0;" width="10" x="511" y="1212.2188"/><rect fill="#003153" height="196.6641" style="stroke:#D9D3D0;stroke-width:1.0;" width="10" x="511" y="1533.8125"/><rect fill="#003153" height="201.9297" style="stroke:#D9D3D0;stroke-width:1.0;" width="10" x="744" y="276.5703"/><rect fill="#003153" height="275.3281" style="stroke:#D9D3D0;stroke-width:1.0;" width="10" x="744" y="714.6953"/><rect fill="#003153" height="12" style="stroke:#D9D3D0;stroke-width:1.0;" width="10" x="977" y="875.4922"/><rect fill="#003153" height="12" style="stroke:#D9D3D0;stroke-width:1.0;" width="10" x="977" y="1241.3516"/><rect fill="#003153" height="138.3984" style="stroke:#D9D3D0;stroke-width:1.0;" width="10" x="977" y="1562.9453"/><rect fill="#003153" height="12" style="stroke:#D9D3D0;stroke-width:1.0;" width="10" x="1192" y="305.7031"/><rect fill="#003153" height="12" style="stroke:#D9D3D0;stroke-width:1.0;" width="10" x="1192" y="363.9688"/><rect fill="#003153" height="12" style="stroke:#D9D3D0;stroke-width:1.0;" width="10" x="1192" y="817.2266"/><rect fill="#003153" height="12" style="stroke:#D9D3D0;stroke-width:1.0;" width="10" x="1288.5" y="437.3672"/><rect fill="#003153" height="12" style="stroke:#D9D3D0;stroke-width:1.0;" width="10" x="1288.5" y="758.9609"/><rect fill="#003153" height="12" style="stroke:#D9D3D0;stroke-width:1.0;" width="10" x="1288.5" y="948.8906"/><rect fill="#003153" height="12" style="stroke:#D9D3D0;stroke-width:1.0;" width="10" x="1288.5" y="1314.75"/><line style="stroke:#D9D3D0;stroke-width:1.0;" x1="29" x2="29" y1="128.9063" y2="1809.875"/><line style="stroke:#D9D3D0;stroke-width:1.0;" x1="237.5" x2="237.5" y1="128.9063" y2="1809.875"/><line style="stroke:#D9D3D0;stroke-width:1.0;" x1="516" x2="516" y1="128.9063" y2="1809.875"/><line style="stroke:#D9D3D0;stroke-width:1.0;" x1="749" x2="749" y1="128.9063" y2="1809.875"/><line style="stroke:#D9D3D0;stroke-width:1.0;" x1="982" x2="982" y1="128.9063" y2="1809.875"/><line style="stroke:#D9D3D0;stroke-width:1.0;" x1="1196.5" x2="1196.5" y1="128.9063" y2="1809.875"/><line style="stroke:#D9D3D0;stroke-width:1.0;" x1="1293.5" x2="1293.5" y1="128.9063" y2="1809.875"/><text fill="#D9D3D0" font-family="Verdana" font-size="14" lengthAdjust="spacing" textLength="32" x="10" y="125.6045">User</text><ellipse cx="29" cy="60.6094" fill="#003153" rx="8" ry="8" style="stroke:#D9D3D0;stroke-width:1.0;"/><path d="M29,68.6094 L29,95.6094 M16,76.6094 L42,76.6094 M29,95.6094 L16,110.6094 M29,95.6094 L42,110.6094 " fill="none" style="stroke:#D9D3D0;stroke-width:1.0;"/><text fill="#D9D3D0" font-family="Verdana" font-size="14" lengthAdjust="spacing" textLength="32" x="10" y="1821.8701">User</text><ellipse cx="29" cy="1834.1719" fill="#003153" rx="8" ry="8" style="stroke:#D9D3D0;stroke-width:1.0;"/><path d="M29,1842.1719 L29,1869.1719 M16,1850.1719 L42,1850.1719 M29,1869.1719 L16,1884.1719 M29,1869.1719 L42,1884.1719 " fill="none" style="stroke:#D9D3D0;stroke-width:1.0;"/><rect fill="#003153" height="30.2969" rx="2.5" ry="2.5" style="stroke:#D9D3D0;stroke-width:1.0;" width="77" x="199.5" y="97.6094"/><text fill="#D9D3D0" font-family="Verdana" font-size="14" lengthAdjust="spacing" textLength="63" x="206.5" y="117.6045">Frontend</text><rect fill="#003153" height="30.2969" rx="2.5" ry="2.5" style="stroke:#D9D3D0;stroke-width:1.0;" width="77" x="199.5" y="1808.875"/><text fill="#D9D3D0" font-family="Verdana" font-size="14" lengthAdjust="spacing" textLength="63" x="206.5" y="1828.8701">Frontend</text><rect fill="#003153" height="46.5938" rx="2.5" ry="2.5" style="stroke:#D9D3D0;stroke-width:1.0;" width="74" x="479" y="81.3125"/><text fill="#D9D3D0" font-family="Verdana" font-size="14" lengthAdjust="spacing" textLength="21" x="505.5" y="101.3076">API</text><text fill="#D9D3D0" font-family="Verdana" font-size="14" lengthAdjust="spacing" textLength="60" x="486" y="117.6045">(FastAPI)</text><rect fill="#003153" height="46.5938" rx="2.5" ry="2.5" style="stroke:#D9D3D0;stroke-width:1.0;" width="74" x="479" y="1808.875"/><text fill="#D9D3D0" font-family="Verdana" font-size="14" lengthAdjust="spacing" textLength="21" x="505.5" y="1828.8701">API</text><text fill="#D9D3D0" font-family="Verdana" font-size="14" lengthAdjust="spacing" textLength="60" x="486" y="1845.167">(FastAPI)</text><rect fill="#003153" height="30.2969" rx="2.5" ry="2.5" style="stroke:#D9D3D0;stroke-width:1.0;" width="100" x="699" y="97.6094"/><text fill="#D9D3D0" font-family="Verdana" font-size="14" lengthAdjust="spacing" textLength="86" x="706" y="117.6045">Auth Service</text><rect fill="#003153" height="30.2969" rx="2.5" ry="2.5" style="stroke:#D9D3D0;stroke-width:1.0;" width="100" x="699" y="1808.875"/><text fill="#D9D3D0" font-family="Verdana" font-size="14" lengthAdjust="spacing" textLength="86" x="706" y="1828.8701">Auth Service</text><rect fill="#003153" height="30.2969" rx="2.5" ry="2.5" style="stroke:#D9D3D0;stroke-width:1.0;" width="112" x="926" y="97.6094"/><text fill="#D9D3D0" font-family="Verdana" font-size="14" lengthAdjust="spacing" textLength="98" x="933" y="117.6045">Token Service</text><rect fill="#003153" height="30.2969" rx="2.5" ry="2.5" style="stroke:#D9D3D0;stroke-width:1.0;" width="112" x="926" y="1808.875"/><text fill="#D9D3D0" font-family="Verdana" font-size="14" lengthAdjust="spacing" textLength="98" x="933" y="1828.8701">Token Service</text><rect fill="#003153" height="46.5938" rx="2.5" ry="2.5" style="stroke:#D9D3D0;stroke-width:1.0;" width="81" x="1156.5" y="81.3125"/><text fill="#D9D3D0" font-family="Verdana" font-size="14" lengthAdjust="spacing" textLength="67" x="1163.5" y="101.3076">Password</text><text fill="#D9D3D0" font-family="Verdana" font-size="14" lengthAdjust="spacing" textLength="59" x="1167.5" y="117.6045">Validator</text><rect fill="#003153" height="46.5938" rx="2.5" ry="2.5" style="stroke:#D9D3D0;stroke-width:1.0;" width="81" x="1156.5" y="1808.875"/><text fill="#D9D3D0" font-family="Verdana" font-size="14" lengthAdjust="spacing" textLength="67" x="1163.5" y="1828.8701">Password</text><text fill="#D9D3D0" font-family="Verdana" font-size="14" lengthAdjust="spacing" textLength="59" x="1167.5" y="1845.167">Validator</text><text fill="#D9D3D0" font-family="Verdana" font-size="14" lengthAdjust="spacing" textLength="66" x="1257.5" y="125.6045">Database</text><path d="M1275.5,76.6094 C1275.5,66.6094 1293.5,66.6094 1293.5,66.6094 C1293.5,66.6094 1311.5,66.6094 1311.5,76.6094 L1311.5,102.6094 C1311.5,112.6094 1293.5,112.6094 1293.5,112.6094 C1293.5,112.6094 1275.5,112.6094 1275.5,102.6094 L1275.5,76.6094 " fill="#003153" style="stroke:#D9D3D0;stroke-width:1.5;"/><path d="M1275.5,76.6094 C1275.5,86.6094 1293.5,86.6094 1293.5,86.6094 C1293.5,86.6094 1311.5,86.6094 1311.5,76.6094 " fill="none" style="stroke:#D9D3D0;stroke-width:1.5;"/><text fill="#D9D3D0" font-family="Verdana" font-size="14" lengthAdjust="spacing" textLength="66" x="1257.5" y="1821.8701">Database</text><path d="M1275.5,1835.1719 C1275.5,1825.1719 1293.5,1825.1719 1293.5,1825.1719 C1293.5,1825.1719 1311.5,1825.1719 1311.5,1835.1719 L1311.5,1861.1719 C1311.5,1871.1719 1293.5,1871.1719 1293.5,1871.1719 C1293.5,1871.1719 1275.5,1871.1719 1275.5,1861.1719 L1275.5,1835.1719 " fill="#003153" style="stroke:#D9D3D0;stroke-width:1.5;"/><path d="M1275.5,1835.1719 C1275.5,1845.1719 1293.5,1845.1719 1293.5,1845.1719 C1293.5,1845.1719 1311.5,1845.1719 1311.5,1835.1719 " fill="none" style="stroke:#D9D3D0;stroke-width:1.5;"/><rect fill="#003153" height="348.7266" style="stroke:#D9D3D0;stroke-width:1.0;" width="10" x="233" y="203.1719"/><rect fill="#003153" height="437.2578" style="stroke:#D9D3D0;stroke-width:1.0;" width="10" x="233" y="641.2969"/><rect fill="#003153" height="232.1953" style="stroke:#D9D3D0;stroke-width:1.0;" width="10" x="233" y="1167.9531"/><rect fill="#003153" height="285.1953" style="stroke:#D9D3D0;stroke-width:1.0;" width="10" x="233" y="1489.5469"/><rect fill="#003153" height="260.1953" style="stroke:#D9D3D0;stroke-width:1.0;" width="10" x="511" y="247.4375"/><rect fill="#003153" height="333.5938" style="stroke:#D9D3D0;stroke-width:1.0;" width="10" x="511" y="685.5625"/><rect fill="#003153" height="143.6641" style="stroke:#D9D3D0;stroke-width:1.0;" width="10" x="511" y="1212.2188"/><rect fill="#003153" height="196.6641" style="stroke:#D9D3D0;stroke-width:1.0;" width="10" x="511" y="1533.8125"/><rect fill="#003153" height="201.9297" style="stroke:#D9D3D0;stroke-width:1.0;" width="10" x="744" y="276.5703"/><rect fill="#003153" height="275.3281" style="stroke:#D9D3D0;stroke-width:1.0;" width="10" x="744" y="714.6953"/><rect fill="#003153" height="12" style="stroke:#D9D3D0;stroke-width:1.0;" width="10" x="977" y="875.4922"/><rect fill="#003153" height="12" style="stroke:#D9D3D0;stroke-width:1.0;" width="10" x="977" y="1241.3516"/><rect fill="#003153" height="138.3984" style="stroke:#D9D3D0;stroke-width:1.0;" width="10" x="977" y="1562.9453"/><rect fill="#003153" height="12" style="stroke:#D9D3D0;stroke-width:1.0;" width="10" x="1192" y="305.7031"/><rect fill="#003153" height="12" style="stroke:#D9D3D0;stroke-width:1.0;" width="10" x="1192" y="363.9688"/><rect fill="#003153" height="12" style="stroke:#D9D3D0;stroke-width:1.0;" width="10" x="1192" y="817.2266"/><rect fill="#003153" height="12" style="stroke:#D9D3D0;stroke-width:1.0;" width="10" x="1288.5" y="437.3672"/><rect fill="#003153" height="12" style="stroke:#D9D3D0;stroke-width:1.0;" width="10" x="1288.5" y="758.9609"/><rect fill="#003153" height="12" style="stroke:#D9D3D0;stroke-width:1.0;" width="10" x="1288.5" y="948.8906"/><rect fill="#003153" height="12" style="stroke:#D9D3D0;stroke-width:1.0;" width="10" x="1288.5" y="1314.75"/><rect fill="#003153" height="3" style="stroke:#003153;stroke-width:1.0;" width="1329.5" x="5" y="159.4727"/><line style="stroke:#D9D3D0;stroke-width:0.5;" x1="5" x2="1334.5" y1="159.4727" y2="159.4727"/><line style="stroke:#D9D3D0;stroke-width:0.5;" x1="5" x2="1334.5" y1="162.4727" y2="162.4727"/><rect fill="#003153" height="23.1328" style="stroke:#D9D3D0;stroke-width:1.0;" width="147" x="596.25" y="148.9063"/><text fill="#D9D3D0" font-family="Verdana" font-size="13" font-weight="bold" lengthAdjust="spacing" textLength="128" x="602.25" y="164.9731">User Registration</text><polygon fill="#D9D3D0" points="221,199.1719,231,203.1719,221,207.1719,225,203.1719" style="stroke:#D9D3D0;stroke-width:1.0;"/><line style="stroke:#D9D3D0;stroke-width:1.0;" x1="29" x2="227" y1="203.1719" y2="203.1719"/><text fill="#D9D3D0" font-family="Verdana" font-size="13" lengthAdjust="spacing" textLength="164" x="49" y="198.106">Enters registration details</text><polygon fill="#D9D3D0" points="499,243.4375,509,247.4375,499,251.4375,503,247.4375" style="stroke:#D9D3D0;stroke-width:1.0;"/><line style="stroke:#D9D3D0;stroke-width:1.0;" x1="243" x2="505" y1="247.4375" y2="247.4375"/><text fill="#D9D3D0" font-family="Verdana" font-size="13" lengthAdjust="spacing" textLength="147" x="303.5" y="227.2388">POST /api/auth/register</text><text fill="#D9D3D0" font-family="Verdana" font-size="13" lengthAdjust="spacing" textLength="192" x="281" y="242.3716">{username, email, password}</text><polygon fill="#D9D3D0" points="732,272.5703,742,276.5703,732,280.5703,736,276.5703" style="stroke:#D9D3D0;stroke-width:1.0;"/><line style="stroke:#D9D3D0;stroke-width:1.0;" x1="521" x2="738" y1="276.5703" y2="276.5703"/><text fill="#D9D3D0" font-family="Verdana" font-size="13" lengthAdjust="spacing" textLength="123" x="571" y="271.5044">register_user(data)</text><polygon fill="#D9D3D0" points="1180,301.7031,1190,305.7031,1180,309.7031,1184,305.7031" style="stroke:#D9D3D0;stroke-width:1.0;"/><line style="stroke:#D9D3D0;stroke-width:1.0;" x1="754" x2="1186" y1="305.7031" y2="305.7031"/><text fill="#D9D3D0" font-family="Verdana" font-size="13" lengthAdjust="spacing" textLength="187" x="879.5" y="300.6372">validate_password(password)</text><polygon fill="#D9D3D0" points="765,313.7031,755,317.7031,765,321.7031,761,317.7031" style="stroke:#D9D3D0;stroke-width:1.0;"/><line style="stroke:#D9D3D0;stroke-width:1.0;stroke-dasharray:2.0,2.0;" x1="759" x2="1196" y1="317.7031" y2="317.7031"/><text fill="#D9D3D0" font-family="Verdana" font-size="13" lengthAdjust="spacing" textLength="103" x="924" y="330.77">Validation result</text><polygon fill="#D9D3D0" points="1180,359.9688,1190,363.9688,1180,367.9688,1184,363.9688" style="stroke:#D9D3D0;stroke-width:1.0;"/><line style="stroke:#D9D3D0;stroke-width:1.0;" x1="754" x2="1186" y1="363.9688" y2="363.9688"/><text fill="#D9D3D0" font-family="Verdana" font-size="13" lengthAdjust="spacing" textLength="168" x="889" y="358.9028">hash_password(password)</text><polygon fill="#D9D3D0" points="765,371.9688,755,375.9688,765,379.9688,761,375.9688" style="stroke:#D9D3D0;stroke-width:1.0;"/><line style="stroke:#D9D3D0;stroke-width:1.0;stroke-dasharray:2.0,2.0;" x1="759" x2="1196" y1="375.9688" y2="375.9688"/><text fill="#D9D3D0" font-family="Verdana" font-size="13" lengthAdjust="spacing" textLength="174" x="888.5" y="389.0356">hashed_password (Argon2)</text><polygon fill="#D9D3D0" points="1276.5,433.3672,1286.5,437.3672,1276.5,441.3672,1280.5,437.3672" style="stroke:#D9D3D0;stroke-width:1.0;"/><line style="stroke:#D9D3D0;stroke-width:1.0;" x1="754" x2="1282.5" y1="437.3672" y2="437.3672"/><text fill="#D9D3D0" font-family="Verdana" font-size="13" lengthAdjust="spacing" textLength="77" x="982.75" y="417.1685">INSERT user</text><text fill="#D9D3D0" font-family="Verdana" font-size="13" lengthAdjust="spacing" textLength="240" x="901.25" y="432.3013">(username, email, hashed_password)</text><polygon fill="#D9D3D0" points="765,445.3672,755,449.3672,765,453.3672,761,449.3672" style="stroke:#D9D3D0;stroke-width:1.0;"/><line style="stroke:#D9D3D0;stroke-width:1.0;stroke-dasharray:2.0,2.0;" x1="759" x2="1292.5" y1="449.3672" y2="449.3672"/><text fill="#D9D3D0" font-family="Verdana" font-size="13" lengthAdjust="spacing" textLength="46" x="1000.75" y="462.4341">user_id</text><polygon fill="#D9D3D0" points="532,474.5,522,478.5,532,482.5,528,478.5" style="stroke:#D9D3D0;stroke-width:1.0;"/><line style="stroke:#D9D3D0;stroke-width:1.0;stroke-dasharray:2.0,2.0;" x1="526" x2="748" y1="478.5" y2="478.5"/><text fill="#D9D3D0" font-family="Verdana" font-size="13" lengthAdjust="spacing" textLength="83" x="593.5" y="491.5669">User created</text><polygon fill="#D9D3D0" points="254,503.6328,244,507.6328,254,511.6328,250,507.6328" style="stroke:#D9D3D0;stroke-width:1.0;"/><line style="stroke:#D9D3D0;stroke-width:1.0;stroke-dasharray:2.0,2.0;" x1="248" x2="515" y1="507.6328" y2="507.6328"/><text fill="#D9D3D0" font-family="Verdana" font-size="13" lengthAdjust="spacing" textLength="79" x="340" y="520.6997">201 Created</text><text fill="#D9D3D0" font-family="Verdana" font-size="13" lengthAdjust="spacing" textLength="178" x="290.5" y="535.8325">{user_id, username, email}</text><polygon fill="#D9D3D0" points="40,547.8984,30,551.8984,40,555.8984,36,551.8984" style="stroke:#D9D3D0;stroke-width:1.0;"/><line style="stroke:#D9D3D0;stroke-width:1.0;stroke-dasharray:2.0,2.0;" x1="34" x2="237" y1="551.8984" y2="551.8984"/><text fill="#D9D3D0" font-family="Verdana" font-size="13" lengthAdjust="spacing" textLength="146" x="60.5" y="564.9653">Registration successful</text><rect fill="#003153" height="3" style="stroke:#003153;stroke-width:1.0;" width="1329.5" x="5" y="597.5977"/><line style="stroke:#D9D3D0;stroke-width:0.5;" x1="5" x2="1334.5" y1="597.5977" y2="597.5977"/><line style="stroke:#D9D3D0;stroke-width:0.5;" x1="5" x2="1334.5" y1="600.5977" y2="600.5977"/><rect fill="#003153" height="23.1328" style="stroke:#D9D3D0;stroke-width:1.0;" width="97" x="621.25" y="587.0313"/><text fill="#D9D3D0" font-family="Verdana" font-size="13" font-weight="bold" lengthAdjust="spacing" textLength="78" x="627.25" y="603.0981">User Login</text><polygon fill="#D9D3D0" points="221,637.2969,231,641.2969,221,645.2969,225,641.2969" style="stroke:#D9D3D0;stroke-width:1.0;"/><line style="stroke:#D9D3D0;stroke-width:1.0;" x1="29" x2="227" y1="641.2969" y2="641.2969"/><text fill="#D9D3D0" font-family="Verdana" font-size="13" lengthAdjust="spacing" textLength="115" x="73.5" y="636.231">Enters credentials</text><polygon fill="#D9D3D0" points="499,681.5625,509,685.5625,499,689.5625,503,685.5625" style="stroke:#D9D3D0;stroke-width:1.0;"/><line style="stroke:#D9D3D0;stroke-width:1.0;" x1="243" x2="505" y1="685.5625" y2="685.5625"/><text fill="#D9D3D0" font-family="Verdana" font-size="13" lengthAdjust="spacing" textLength="128" x="313" y="665.3638">POST /api/auth/login</text><text fill="#D9D3D0" font-family="Verdana" font-size="13" lengthAdjust="spacing" textLength="149" x="302.5" y="680.4966">{username, password}</text><polygon fill="#D9D3D0" points="732,710.6953,742,714.6953,732,718.6953,736,714.6953" style="stroke:#D9D3D0;stroke-width:1.0;"/><line style="stroke:#D9D3D0;stroke-width:1.0;" x1="521" x2="738" y1="714.6953" y2="714.6953"/><text fill="#D9D3D0" font-family="Verdana" font-size="13" lengthAdjust="spacing" textLength="173" x="546" y="709.6294">login(username, password)</text><polygon fill="#D9D3D0" points="1276.5,754.9609,1286.5,758.9609,1276.5,762.9609,1280.5,758.9609" style="stroke:#D9D3D0;stroke-width:1.0;"/><line style="stroke:#D9D3D0;stroke-width:1.0;" x1="754" x2="1282.5" y1="758.9609" y2="758.9609"/><text fill="#D9D3D0" font-family="Verdana" font-size="13" lengthAdjust="spacing" textLength="80" x="981.25" y="738.7622">SELECT user</text><text fill="#D9D3D0" font-family="Verdana" font-size="13" lengthAdjust="spacing" textLength="140" x="951.25" y="753.895">WHERE username = ?</text><polygon fill="#D9D3D0" points="765,766.9609,755,770.9609,765,774.9609,761,770.9609" style="stroke:#D9D3D0;stroke-width:1.0;"/><line style="stroke:#D9D3D0;stroke-width:1.0;stroke-dasharray:2.0,2.0;" x1="759" x2="1292.5" y1="770.9609" y2="770.9609"/><text fill="#D9D3D0" font-family="Verdana" font-size="13" lengthAdjust="spacing" textLength="73" x="987.25" y="784.0278">user record</text><polygon fill="#D9D3D0" points="1180,813.2266,1190,817.2266,1180,821.2266,1184,817.2266" style="stroke:#D9D3D0;stroke-width:1.0;"/><line style="stroke:#D9D3D0;stroke-width:1.0;" x1="754" x2="1186" y1="817.2266" y2="817.2266"/><text fill="#D9D3D0" font-family="Verdana" font-size="13" lengthAdjust="spacing" textLength="226" x="860" y="812.1606">verify_password(password, hashed)</text><polygon fill="#D9D3D0" points="765,825.2266,755,829.2266,765,833.2266,761,829.2266" style="stroke:#D9D3D0;stroke-width:1.0;"/><line style="stroke:#D9D3D0;stroke-width:1.0;stroke-dasharray:2.0,2.0;" x1="759" x2="1196" y1="829.2266" y2="829.2266"/><text fill="#D9D3D0" font-family="Verdana" font-size="13" lengthAdjust="spacing" textLength="93" x="929" y="842.2935">verified = True</text><polygon fill="#D9D3D0" points="965,871.4922,975,875.4922,965,879.4922,969,875.4922" style="stroke:#D9D3D0;stroke-width:1.0;"/><line style="stroke:#D9D3D0;stroke-width:1.0;" x1="754" x2="971" y1="875.4922" y2="875.4922"/><text fill="#D9D3D0" font-family="Verdana" font-size="13" lengthAdjust="spacing" textLength="171" x="780" y="870.4263">create_token_pair(user_id)</text><polygon fill="#D9D3D0" points="765,883.4922,755,887.4922,765,891.4922,761,887.4922" style="stroke:#D9D3D0;stroke-width:1.0;"/><line style="stroke:#D9D3D0;stroke-width:1.0;stroke-dasharray:2.0,2.0;" x1="759" x2="981" y1="887.4922" y2="887.4922"/><text fill="#D9D3D0" font-family="Verdana" font-size="13" lengthAdjust="spacing" textLength="199" x="768.5" y="900.5591">{access_token, refresh_token}</text><polygon fill="#D9D3D0" points="1276.5,944.8906,1286.5,948.8906,1276.5,952.8906,1280.5,948.8906" style="stroke:#D9D3D0;stroke-width:1.0;"/><line style="stroke:#D9D3D0;stroke-width:1.0;" x1="754" x2="1282.5" y1="948.8906" y2="948.8906"/><text fill="#D9D3D0" font-family="Verdana" font-size="13" lengthAdjust="spacing" textLength="91" x="975.75" y="928.6919">UPDATE users</text><text fill="#D9D3D0" font-family="Verdana" font-size="13" lengthAdjust="spacing" textLength="148" x="947.25" y="943.8247">SET last_login = NOW()</text><polygon fill="#D9D3D0" points="765,956.8906,755,960.8906,765,964.8906,761,960.8906" style="stroke:#D9D3D0;stroke-width:1.0;"/><line style="stroke:#D9D3D0;stroke-width:1.0;stroke-dasharray:2.0,2.0;" x1="759" x2="1292.5" y1="960.8906" y2="960.8906"/><text fill="#D9D3D0" font-family="Verdana" font-size="13" lengthAdjust="spacing" textLength="18" x="1014.75" y="973.9575">OK</text><polygon fill="#D9D3D0" points="532,986.0234,522,990.0234,532,994.0234,528,990.0234" style="stroke:#D9D3D0;stroke-width:1.0;"/><line style="stroke:#D9D3D0;stroke-width:1.0;stroke-dasharray:2.0,2.0;" x1="526" x2="748" y1="990.0234" y2="990.0234"/><text fill="#D9D3D0" font-family="Verdana" font-size="13" lengthAdjust="spacing" textLength="199" x="535.5" y="1003.0903">{access_token, refresh_token}</text><polygon fill="#D9D3D0" points="254,1015.1563,244,1019.1563,254,1023.1563,250,1019.1563" style="stroke:#D9D3D0;stroke-width:1.0;"/><line style="stroke:#D9D3D0;stroke-width:1.0;stroke-dasharray:2.0,2.0;" x1="248" x2="515" y1="1019.1563" y2="1019.1563"/><text fill="#D9D3D0" font-family="Verdana" font-size="13" lengthAdjust="spacing" textLength="46" x="356.5" y="1032.2231">200 OK</text><text fill="#D9D3D0" font-family="Verdana" font-size="13" lengthAdjust="spacing" textLength="103" x="328" y="1047.356">{access_token}</text><text fill="#D9D3D0" font-family="Verdana" font-size="13" lengthAdjust="spacing" textLength="234" x="262.5" y="1062.4888">Set-Cookie: refresh_token (httpOnly)</text><polygon fill="#D9D3D0" points="40,1074.5547,30,1078.5547,40,1082.5547,36,1078.5547" style="stroke:#D9D3D0;stroke-width:1.0;"/><line style="stroke:#D9D3D0;stroke-width:1.0;stroke-dasharray:2.0,2.0;" x1="34" x2="237" y1="1078.5547" y2="1078.5547"/><text fill="#D9D3D0" font-family="Verdana" font-size="13" lengthAdjust="spacing" textLength="104" x="81.5" y="1091.6216">Login successful</text><rect fill="#003153" height="3" style="stroke:#003153;stroke-width:1.0;" width="1329.5" x="5" y="1124.2539"/><line style="stroke:#D9D3D0;stroke-width:0.5;" x1="5" x2="1334.5" y1="1124.2539" y2="1124.2539"/><line style="stroke:#D9D3D0;stroke-width:0.5;" x1="5" x2="1334.5" y1="1127.2539" y2="1127.2539"/><rect fill="#003153" height="23.1328" style="stroke:#D9D3D0;stroke-width:1.0;" width="187" x="576.25" y="1113.6875"/><text fill="#D9D3D0" font-family="Verdana" font-size="13" font-weight="bold" lengthAdjust="spacing" textLength="168" x="582.25" y="1129.7544">Protected API Request</text><polygon fill="#D9D3D0" points="221,1163.9531,231,1167.9531,221,1171.9531,225,1167.9531" style="stroke:#D9D3D0;stroke-width:1.0;"/><line style="stroke:#D9D3D0;stroke-width:1.0;" x1="29" x2="227" y1="1167.9531" y2="1167.9531"/><text fill="#D9D3D0" font-family="Verdana" font-size="13" lengthAdjust="spacing" textLength="185" x="38.5" y="1162.8872">Requests protected resource</text><polygon fill="#D9D3D0" points="499,1208.2188,509,1212.2188,499,1216.2188,503,1212.2188" style="stroke:#D9D3D0;stroke-width:1.0;"/><line style="stroke:#D9D3D0;stroke-width:1.0;" x1="243" x2="505" y1="1212.2188" y2="1212.2188"/><text fill="#D9D3D0" font-family="Verdana" font-size="13" lengthAdjust="spacing" textLength="166" x="294" y="1192.02">GET /api/vocabulary/words</text><text fill="#D9D3D0" font-family="Verdana" font-size="13" lengthAdjust="spacing" textLength="249" x="252.5" y="1207.1528">Authorization: Bearer &lt;access_token&gt;</text><polygon fill="#D9D3D0" points="965,1237.3516,975,1241.3516,965,1245.3516,969,1241.3516" style="stroke:#D9D3D0;stroke-width:1.0;"/><line style="stroke:#D9D3D0;stroke-width:1.0;" x1="521" x2="971" y1="1241.3516" y2="1241.3516"/><text fill="#D9D3D0" font-family="Verdana" font-size="13" lengthAdjust="spacing" textLength="174" x="662" y="1236.2856">verify_access_token(token)</text><polygon fill="#D9D3D0" points="532,1249.3516,522,1253.3516,532,1257.3516,528,1253.3516" style="stroke:#D9D3D0;stroke-width:1.0;"/><line style="stroke:#D9D3D0;stroke-width:1.0;stroke-dasharray:2.0,2.0;" x1="526" x2="981" y1="1253.3516" y2="1253.3516"/><text fill="#D9D3D0" font-family="Verdana" font-size="13" lengthAdjust="spacing" textLength="174" x="664.5" y="1266.4185">user_id (decoded from JWT)</text><polygon fill="#D9D3D0" points="1276.5,1310.75,1286.5,1314.75,1276.5,1318.75,1280.5,1314.75" style="stroke:#D9D3D0;stroke-width:1.0;"/><line style="stroke:#D9D3D0;stroke-width:1.0;" x1="521" x2="1282.5" y1="1314.75" y2="1314.75"/><text fill="#D9D3D0" font-family="Verdana" font-size="13" lengthAdjust="spacing" textLength="121" x="844.25" y="1294.5513">SELECT vocabulary</text><text fill="#D9D3D0" font-family="Verdana" font-size="13" lengthAdjust="spacing" textLength="121" x="844.25" y="1309.6841">WHERE user_id = ?</text><polygon fill="#D9D3D0" points="532,1322.75,522,1326.75,532,1330.75,528,1326.75" style="stroke:#D9D3D0;stroke-width:1.0;"/><line style="stroke:#D9D3D0;stroke-width:1.0;stroke-dasharray:2.0,2.0;" x1="526" x2="1292.5" y1="1326.75" y2="1326.75"/><text fill="#D9D3D0" font-family="Verdana" font-size="13" lengthAdjust="spacing" textLength="123" x="845.75" y="1339.8169">vocabulary_words[]</text><polygon fill="#D9D3D0" points="254,1351.8828,244,1355.8828,254,1359.8828,250,1355.8828" style="stroke:#D9D3D0;stroke-width:1.0;"/><line style="stroke:#D9D3D0;stroke-width:1.0;stroke-dasharray:2.0,2.0;" x1="248" x2="515" y1="1355.8828" y2="1355.8828"/><text fill="#D9D3D0" font-family="Verdana" font-size="13" lengthAdjust="spacing" textLength="46" x="356.5" y="1368.9497">200 OK</text><text fill="#D9D3D0" font-family="Verdana" font-size="13" lengthAdjust="spacing" textLength="139" x="310" y="1384.0825">{vocabulary_words[]}</text><polygon fill="#D9D3D0" points="40,1396.1484,30,1400.1484,40,1404.1484,36,1400.1484" style="stroke:#D9D3D0;stroke-width:1.0;"/><line style="stroke:#D9D3D0;stroke-width:1.0;stroke-dasharray:2.0,2.0;" x1="34" x2="237" y1="1400.1484" y2="1400.1484"/><text fill="#D9D3D0" font-family="Verdana" font-size="13" lengthAdjust="spacing" textLength="119" x="74" y="1413.2153">Display vocabulary</text><rect fill="#003153" height="3" style="stroke:#003153;stroke-width:1.0;" width="1329.5" x="5" y="1445.8477"/><line style="stroke:#D9D3D0;stroke-width:0.5;" x1="5" x2="1334.5" y1="1445.8477" y2="1445.8477"/><line style="stroke:#D9D3D0;stroke-width:0.5;" x1="5" x2="1334.5" y1="1448.8477" y2="1448.8477"/><rect fill="#003153" height="23.1328" style="stroke:#D9D3D0;stroke-width:1.0;" width="125" x="607.25" y="1435.2813"/><text fill="#D9D3D0" font-family="Verdana" font-size="13" font-weight="bold" lengthAdjust="spacing" textLength="106" x="613.25" y="1451.3481">Token Refresh</text><polygon fill="#D9D3D0" points="221,1485.5469,231,1489.5469,221,1493.5469,225,1489.5469" style="stroke:#D9D3D0;stroke-width:1.0;"/><line style="stroke:#D9D3D0;stroke-width:1.0;" x1="29" x2="227" y1="1489.5469" y2="1489.5469"/><text fill="#D9D3D0" font-family="Verdana" font-size="13" lengthAdjust="spacing" textLength="136" x="63" y="1484.481">Access token expired</text><polygon fill="#D9D3D0" points="499,1529.8125,509,1533.8125,499,1537.8125,503,1533.8125" style="stroke:#D9D3D0;stroke-width:1.0;"/><line style="stroke:#D9D3D0;stroke-width:1.0;" x1="243" x2="505" y1="1533.8125" y2="1533.8125"/><text fill="#D9D3D0" font-family="Verdana" font-size="13" lengthAdjust="spacing" textLength="183" x="285.5" y="1513.6138">POST /api/auth/token/refresh</text><text fill="#D9D3D0" font-family="Verdana" font-size="13" lengthAdjust="spacing" textLength="139" x="307.5" y="1528.7466">Cookie: refresh_token</text><polygon fill="#D9D3D0" points="965,1558.9453,975,1562.9453,965,1566.9453,969,1562.9453" style="stroke:#D9D3D0;stroke-width:1.0;"/><line style="stroke:#D9D3D0;stroke-width:1.0;" x1="521" x2="971" y1="1562.9453" y2="1562.9453"/><text fill="#D9D3D0" font-family="Verdana" font-size="13" lengthAdjust="spacing" textLength="237" x="630.5" y="1557.8794">refresh_access_token(refresh_token)</text><line style="stroke:#D9D3D0;stroke-width:1.0;" x1="987" x2="1029" y1="1592.0781" y2="1592.0781"/><line style="stroke:#D9D3D0;stroke-width:1.0;" x1="1029" x2="1029" y1="1592.0781" y2="1605.0781"/><line style="stroke:#D9D3D0;stroke-width:1.0;" x1="988" x2="1029" y1="1605.0781" y2="1605.0781"/><polygon fill="#D9D3D0" points="998,1601.0781,988,1605.0781,998,1609.0781,994,1605.0781" style="stroke:#D9D3D0;stroke-width:1.0;"/><text fill="#D9D3D0" font-family="Verdana" font-size="13" lengthAdjust="spacing" textLength="139" x="994" y="1587.0122">verify_refresh_token()</text><line style="stroke:#D9D3D0;stroke-width:1.0;" x1="987" x2="1029" y1="1634.2109" y2="1634.2109"/><line style="stroke:#D9D3D0;stroke-width:1.0;" x1="1029" x2="1029" y1="1634.2109" y2="1647.2109"/><line style="stroke:#D9D3D0;stroke-width:1.0;" x1="988" x2="1029" y1="1647.2109" y2="1647.2109"/><polygon fill="#D9D3D0" points="998,1643.2109,988,1647.2109,998,1651.2109,994,1647.2109" style="stroke:#D9D3D0;stroke-width:1.0;"/><text fill="#D9D3D0" font-family="Verdana" font-size="13" lengthAdjust="spacing" textLength="100" x="994" y="1629.145">decode_token()</text><line style="stroke:#D9D3D0;stroke-width:1.0;" x1="987" x2="1029" y1="1676.3438" y2="1676.3438"/><line style="stroke:#D9D3D0;stroke-width:1.0;" x1="1029" x2="1029" y1="1676.3438" y2="1689.3438"/><line style="stroke:#D9D3D0;stroke-width:1.0;" x1="988" x2="1029" y1="1689.3438" y2="1689.3438"/><polygon fill="#D9D3D0" points="998,1685.3438,988,1689.3438,998,1693.3438,994,1689.3438" style="stroke:#D9D3D0;stroke-width:1.0;"/><text fill="#D9D3D0" font-family="Verdana" font-size="13" lengthAdjust="spacing" textLength="191" x="994" y="1671.2778">create_access_token(user_id)</text><polygon fill="#D9D3D0" points="532,1697.3438,522,1701.3438,532,1705.3438,528,1701.3438" style="stroke:#D9D3D0;stroke-width:1.0;"/><line style="stroke:#D9D3D0;stroke-width:1.0;stroke-dasharray:2.0,2.0;" x1="526" x2="981" y1="1701.3438" y2="1701.3438"/><text fill="#D9D3D0" font-family="Verdana" font-size="13" lengthAdjust="spacing" textLength="119" x="692" y="1714.4106">new_access_token</text><polygon fill="#D9D3D0" points="254,1726.4766,244,1730.4766,254,1734.4766,250,1730.4766" style="stroke:#D9D3D0;stroke-width:1.0;"/><line style="stroke:#D9D3D0;stroke-width:1.0;stroke-dasharray:2.0,2.0;" x1="248" x2="515" y1="1730.4766" y2="1730.4766"/><text fill="#D9D3D0" font-family="Verdana" font-size="13" lengthAdjust="spacing" textLength="46" x="356.5" y="1743.5435">200 OK</text><text fill="#D9D3D0" font-family="Verdana" font-size="13" lengthAdjust="spacing" textLength="103" x="328" y="1758.6763">{access_token}</text><polygon fill="#D9D3D0" points="40,1770.7422,30,1774.7422,40,1778.7422,36,1774.7422" style="stroke:#D9D3D0;stroke-width:1.0;"/><line style="stroke:#D9D3D0;stroke-width:1.0;stroke-dasharray:2.0,2.0;" x1="34" x2="237" y1="1774.7422" y2="1774.7422"/><text fill="#D9D3D0" font-family="Verdana" font-size="13" lengthAdjust="spacing" textLength="123" x="72" y="1787.8091">Continue using app</text><!--SRC=[dLPDSzem4BtxLsnpCZDaI7lqb7H8GjgqQSC4sXnAXn7s1ZGniYl9qBIJ_zwLR8C4cA4zn97jj_lsu-sQLtgE2uHfMc0kkT21Uk8YPv8jGE7F0aMCdr4fDiDUocS2OXGQfOEIgF9Cg1frWMcswacPhK3B0eD0SvqYz0hY4Ph7JFDCm3M1u1JkSSQLblPP6swp6QT_e-m91Rrw9C_p862npYISV5KeJu0fAEWG43NvuZaJ6awkPKOnYSI-VgnkV4XlS3CMuJLJcauj2sGvty9GY314kUGnbWXwu4FAq5oCDazyq80fjSfaCXRVMCeJHk5RQBvA0hfZKwOGJgwgatsLJ8EWsmMJerSJw7Q3m2GCf-Vhp2BecnOegho3J50pdYfJBhva6ZU52EgJSK9PHp2u6uwWGyUEIR5J-a4v5dyCbs0BR0Cko5qRyYgPburZKxY0BjOTsKTGEvWOyz3as7BWfeg1kHe3Aa84ox8kEAczX_N1iJFbeZyuNTDKvJJPaZIAL0S9Ud2VPSxK_1yPZ0acQoC8UtAMYJUjHg9a6i7Dbs7_VcHrIHhRgU2MJuUVkfvC7NPZEk69IsQ4KNBLlRCQYINIMmzPbTcqnTFAcxFNS5d2g_uIHHksmdpnN9a6RqH3xWmwyfMfYZYcYNyiKjTq8xfQpdQe3-kOiadCRc3_9z_KC7ZQFKgqrYpSDMgKhkdri7_Rlwnx_V2XVzzVLnAwyEvmRqcrCH7ixsyz6YZvu_EkR6iT7PIlDUQOK2WZitkRL6kNLbIfQ6BlY97Bi9A7GrBkDtjrYFums_pIj4rvsLrTtdfIAisz4duTNFL6PTdKM0px8qXfBK_IKYVmvUuXF30ZTvyEZyVHaJNFoncHa9nSHoyKAEhJoonxuXZvNY6SQvtVYVIvTSmGbVDmnFGCPAOnfh45-cJHxD6tMEc6GQhUqZTcRKG1PeMCyQY9Uj-l1cgPnMnQf4m-Tupgg47cgvX9_jjEVGGNo2InltMhSxv_p2gLLOfs3K9xFQGo4rGbHWWJ6fk4KgAm5_3nOTJQfx2IqvdHJIhkf1g7JODgI3TM4rk0xpzszDOicLtZe_Rg5LTvofuTxaPHUB-D6iJGivKk2mFuA-UqNlzdhre7dKhhOx5N_0SxNoEzrdlcEnAeDR2j7i-AziCsh9H8u-jgqtc1h7VTjku4hZnaazgEM1l7TF-Idd1H8DroCIDOlhVxVm40]--></g></svg>