<?xml version="1.0" encoding="us-ascii" standalone="no"?><svg xmlns="http://www.w3.org/2000/svg" xmlns:xlink="http://www.w3.org/1999/xlink" contentStyleType="text/css" height="2556px" preserveAspectRatio="none" style="width:1964px;height:2556px;background:#003153;" version="1.1" viewBox="0 0 1964 2556" width="1964px" zoomAndPan="magnify"><defs/><g><rect fill="#003153" height="2556" style="stroke:none;stroke-width:1.0;" width="1964" x="0" y="0"/><text fill="#D9D3D0" font-family="Verdana" font-size="22" font-weight="bold" lengthAdjust="spacing" textLength="783" x="589.25" y="35.4209">Video Processing Pipeline - Chunk Transcription &amp; Translation</text><rect fill="#003153" height="173.9297" style="stroke:#D9D3D0;stroke-width:1.0;" width="10" x="238" y="203.1719"/><rect fill="#003153" height="1942.8281" style="stroke:#D9D3D0;stroke-width:1.0;" width="10" x="238" y="481.6328"/><rect fill="#003153" height="85.3984" style="stroke:#D9D3D0;stroke-width:1.0;" width="10" x="506" y="247.4375"/><rect fill="#003153" height="1854.2969" style="stroke:#D9D3D0;stroke-width:1.0;" width="10" x="506" y="525.8984"/><rect fill="#003153" height="1780.8984" style="stroke:#D9D3D0;stroke-width:1.0;" width="10" x="724" y="555.0313"/><rect fill="#003153" height="85.3984" style="stroke:#D9D3D0;stroke-width:1.0;" width="10" x="973" y="700.6953"/><rect fill="#003153" height="158.7969" style="stroke:#D9D3D0;stroke-width:1.0;" width="10" x="973" y="948.8906"/><rect fill="#003153" height="158.7969" style="stroke:#D9D3D0;stroke-width:1.0;" width="10" x="1100" y="1958.0703"/><rect fill="#003153" height="274.3281" style="stroke:#D9D3D0;stroke-width:1.0;" width="10" x="1219.5" y="1285.6172"/><rect fill="#003153" height="12" style="stroke:#D9D3D0;stroke-width:1.0;" width="10" x="1407.5" y="993.1563"/><rect fill="#003153" height="12" style="stroke:#D9D3D0;stroke-width:1.0;" width="10" x="1512" y="2002.3359"/><rect fill="#003153" height="12" style="stroke:#D9D3D0;stroke-width:1.0;" width="10" x="1609.5" y="1461.5469"/><rect fill="#003153" height="12" style="stroke:#D9D3D0;stroke-width:1.0;" width="10" x="1714" y="599.2969"/><rect fill="#003153" height="12" style="stroke:#D9D3D0;stroke-width:1.0;" width="10" x="1714" y="847.4922"/><rect fill="#003153" height="12" style="stroke:#D9D3D0;stroke-width:1.0;" width="10" x="1714" y="1169.0859"/><rect fill="#003153" height="12" style="stroke:#D9D3D0;stroke-width:1.0;" width="10" x="1714" y="1651.6094"/><rect fill="#003153" height="12" style="stroke:#D9D3D0;stroke-width:1.0;" width="10" x="1714" y="1841.5391"/><rect fill="#003153" height="12" style="stroke:#D9D3D0;stroke-width:1.0;" width="10" x="1714" y="2178.2656"/><rect fill="#003153" height="12" style="stroke:#D9D3D0;stroke-width:1.0;" width="10" x="1816.5" y="1329.8828"/><rect fill="#003153" height="12" style="stroke:#D9D3D0;stroke-width:1.0;" width="10" x="1816.5" y="1403.2813"/><rect fill="#003153" height="12" style="stroke:#D9D3D0;stroke-width:1.0;" width="10" x="1816.5" y="2294.7969"/><rect fill="#003153" height="12" style="stroke:#D9D3D0;stroke-width:1.0;" width="10" x="1905" y="291.7031"/><rect fill="#003153" height="12" style="stroke:#D9D3D0;stroke-width:1.0;" width="10" x="1905" y="744.9609"/><rect fill="#003153" height="12" style="stroke:#D9D3D0;stroke-width:1.0;" width="10" x="1905" y="1066.5547"/><rect fill="#003153" height="12" style="stroke:#D9D3D0;stroke-width:1.0;" width="10" x="1905" y="1768.1406"/><rect fill="#003153" height="12" style="stroke:#D9D3D0;stroke-width:1.0;" width="10" x="1905" y="2075.7344"/><line style="stroke:#D9D3D0;stroke-width:1.0;" x1="29" x2="29" y1="128.9063" y2="2474.7266"/><line style="stroke:#D9D3D0;stroke-width:1.0;" x1="242.5" x2="242.5" y1="128.9063" y2="2474.7266"/><line style="stroke:#D9D3D0;stroke-width:1.0;" x1="510.5" x2="510.5" y1="128.9063" y2="2474.7266"/><line style="stroke:#D9D3D0;stroke-width:1.0;" x1="729" x2="729" y1="128.9063" y2="2474.7266"/><line style="stroke:#D9D3D0;stroke-width:1.0;" x1="978" x2="978" y1="128.9063" y2="2474.7266"/><line style="stroke:#D9D3D0;stroke-width:1.0;" x1="1105" x2="1105" y1="128.9063" y2="2474.7266"/><line style="stroke:#D9D3D0;stroke-width:1.0;" x1="1224" x2="1224" y1="128.9063" y2="2474.7266"/><line style="stroke:#D9D3D0;stroke-width:1.0;" x1="1412.5" x2="1412.5" y1="128.9063" y2="2474.7266"/><line style="stroke:#D9D3D0;stroke-width:1.0;" x1="1516.5" x2="1516.5" y1="128.9063" y2="2474.7266"/><line style="stroke:#D9D3D0;stroke-width:1.0;" x1="1614.5" x2="1614.5" y1="128.9063" y2="2474.7266"/><line style="stroke:#D9D3D0;stroke-width:1.0;" x1="1718.5" x2="1718.5" y1="128.9063" y2="2474.7266"/><line style="stroke:#D9D3D0;stroke-width:1.0;" x1="1821.5" x2="1821.5" y1="128.9063" y2="2474.7266"/><line style="stroke:#D9D3D0;stroke-width:1.0;" x1="1909.5" x2="1909.5" y1="128.9063" y2="2474.7266"/><text fill="#D9D3D0" font-family="Verdana" font-size="14" lengthAdjust="spacing" textLength="32" x="10" y="125.6045">User</text><ellipse cx="29" cy="60.6094" fill="#003153" rx="8" ry="8" style="stroke:#D9D3D0;stroke-width:1.0;"/><path d="M29,68.6094 L29,95.6094 M16,76.6094 L42,76.6094 M29,95.6094 L16,110.6094 M29,95.6094 L42,110.6094 " fill="none" style="stroke:#D9D3D0;stroke-width:1.0;"/><text fill="#D9D3D0" font-family="Verdana" font-size="14" lengthAdjust="spacing" textLength="32" x="10" y="2486.7217">User</text><ellipse cx="29" cy="2499.0234" fill="#003153" rx="8" ry="8" style="stroke:#D9D3D0;stroke-width:1.0;"/><path d="M29,2507.0234 L29,2534.0234 M16,2515.0234 L42,2515.0234 M29,2534.0234 L16,2549.0234 M29,2534.0234 L42,2549.0234 " fill="none" style="stroke:#D9D3D0;stroke-width:1.0;"/><rect fill="#003153" height="30.2969" rx="2.5" ry="2.5" style="stroke:#D9D3D0;stroke-width:1.0;" width="77" x="204.5" y="97.6094"/><text fill="#D9D3D0" font-family="Verdana" font-size="14" lengthAdjust="spacing" textLength="63" x="211.5" y="117.6045">Frontend</text><rect fill="#003153" height="30.2969" rx="2.5" ry="2.5" style="stroke:#D9D3D0;stroke-width:1.0;" width="77" x="204.5" y="2473.7266"/><text fill="#D9D3D0" font-family="Verdana" font-size="14" lengthAdjust="spacing" textLength="63" x="211.5" y="2493.7217">Frontend</text><rect fill="#003153" height="30.2969" rx="2.5" ry="2.5" style="stroke:#D9D3D0;stroke-width:1.0;" width="35" x="493.5" y="97.6094"/><text fill="#D9D3D0" font-family="Verdana" font-size="14" lengthAdjust="spacing" textLength="21" x="500.5" y="117.6045">API</text><rect fill="#003153" height="30.2969" rx="2.5" ry="2.5" style="stroke:#D9D3D0;stroke-width:1.0;" width="35" x="493.5" y="2473.7266"/><text fill="#D9D3D0" font-family="Verdana" font-size="14" lengthAdjust="spacing" textLength="21" x="500.5" y="2493.7217">API</text><rect fill="#003153" height="46.5938" rx="2.5" ry="2.5" style="stroke:#D9D3D0;stroke-width:1.0;" width="84" x="687" y="81.3125"/><text fill="#D9D3D0" font-family="Verdana" font-size="14" lengthAdjust="spacing" textLength="45" x="706.5" y="101.3076">Chunk</text><text fill="#D9D3D0" font-family="Verdana" font-size="14" lengthAdjust="spacing" textLength="70" x="694" y="117.6045">Processor</text><rect fill="#003153" height="46.5938" rx="2.5" ry="2.5" style="stroke:#D9D3D0;stroke-width:1.0;" width="84" x="687" y="2473.7266"/><text fill="#D9D3D0" font-family="Verdana" font-size="14" lengthAdjust="spacing" textLength="45" x="706.5" y="2493.7217">Chunk</text><text fill="#D9D3D0" font-family="Verdana" font-size="14" lengthAdjust="spacing" textLength="70" x="694" y="2510.0186">Processor</text><rect fill="#003153" height="46.5938" rx="2.5" ry="2.5" style="stroke:#D9D3D0;stroke-width:1.0;" width="104" x="926" y="81.3125"/><text fill="#D9D3D0" font-family="Verdana" font-size="14" lengthAdjust="spacing" textLength="90" x="933" y="101.3076">Transcription</text><text fill="#D9D3D0" font-family="Verdana" font-size="14" lengthAdjust="spacing" textLength="50" x="953" y="117.6045">Service</text><rect fill="#003153" height="46.5938" rx="2.5" ry="2.5" style="stroke:#D9D3D0;stroke-width:1.0;" width="104" x="926" y="2473.7266"/><text fill="#D9D3D0" font-family="Verdana" font-size="14" lengthAdjust="spacing" textLength="90" x="933" y="2493.7217">Transcription</text><text fill="#D9D3D0" font-family="Verdana" font-size="14" lengthAdjust="spacing" textLength="50" x="953" y="2510.0186">Service</text><rect fill="#003153" height="46.5938" rx="2.5" ry="2.5" style="stroke:#D9D3D0;stroke-width:1.0;" width="90" x="1060" y="81.3125"/><text fill="#D9D3D0" font-family="Verdana" font-size="14" lengthAdjust="spacing" textLength="76" x="1067" y="101.3076">Translation</text><text fill="#D9D3D0" font-family="Verdana" font-size="14" lengthAdjust="spacing" textLength="50" x="1080" y="117.6045">Service</text><rect fill="#003153" height="46.5938" rx="2.5" ry="2.5" style="stroke:#D9D3D0;stroke-width:1.0;" width="90" x="1060" y="2473.7266"/><text fill="#D9D3D0" font-family="Verdana" font-size="14" lengthAdjust="spacing" textLength="76" x="1067" y="2493.7217">Translation</text><text fill="#D9D3D0" font-family="Verdana" font-size="14" lengthAdjust="spacing" textLength="50" x="1080" y="2510.0186">Service</text><rect fill="#003153" height="46.5938" rx="2.5" ry="2.5" style="stroke:#D9D3D0;stroke-width:1.0;" width="89" x="1180" y="81.3125"/><text fill="#D9D3D0" font-family="Verdana" font-size="14" lengthAdjust="spacing" textLength="75" x="1187" y="101.3076">Vocabulary</text><text fill="#D9D3D0" font-family="Verdana" font-size="14" lengthAdjust="spacing" textLength="33" x="1208" y="117.6045">Filter</text><rect fill="#003153" height="46.5938" rx="2.5" ry="2.5" style="stroke:#D9D3D0;stroke-width:1.0;" width="89" x="1180" y="2473.7266"/><text fill="#D9D3D0" font-family="Verdana" font-size="14" lengthAdjust="spacing" textLength="75" x="1187" y="2493.7217">Vocabulary</text><text fill="#D9D3D0" font-family="Verdana" font-size="14" lengthAdjust="spacing" textLength="33" x="1208" y="2510.0186">Filter</text><rect fill="#003153" height="46.5938" rx="2.5" ry="2.5" style="stroke:#D9D3D0;stroke-width:1.0;" width="70" x="1377.5" y="81.3125"/><text fill="#D9D3D0" font-family="Verdana" font-size="14" lengthAdjust="spacing" textLength="56" x="1384.5" y="101.3076">Whisper</text><text fill="#D9D3D0" font-family="Verdana" font-size="14" lengthAdjust="spacing" textLength="42" x="1391.5" y="117.6045">Model</text><rect fill="#003153" height="46.5938" rx="2.5" ry="2.5" style="stroke:#D9D3D0;stroke-width:1.0;" width="70" x="1377.5" y="2473.7266"/><text fill="#D9D3D0" font-family="Verdana" font-size="14" lengthAdjust="spacing" textLength="56" x="1384.5" y="2493.7217">Whisper</text><text fill="#D9D3D0" font-family="Verdana" font-size="14" lengthAdjust="spacing" textLength="42" x="1391.5" y="2510.0186">Model</text><rect fill="#003153" height="46.5938" rx="2.5" ry="2.5" style="stroke:#D9D3D0;stroke-width:1.0;" width="79" x="1477.5" y="81.3125"/><text fill="#D9D3D0" font-family="Verdana" font-size="14" lengthAdjust="spacing" textLength="65" x="1484.5" y="101.3076">OPUS-MT</text><text fill="#D9D3D0" font-family="Verdana" font-size="14" lengthAdjust="spacing" textLength="42" x="1496" y="117.6045">Model</text><rect fill="#003153" height="46.5938" rx="2.5" ry="2.5" style="stroke:#D9D3D0;stroke-width:1.0;" width="79" x="1477.5" y="2473.7266"/><text fill="#D9D3D0" font-family="Verdana" font-size="14" lengthAdjust="spacing" textLength="65" x="1484.5" y="2493.7217">OPUS-MT</text><text fill="#D9D3D0" font-family="Verdana" font-size="14" lengthAdjust="spacing" textLength="42" x="1496" y="2510.0186">Model</text><rect fill="#003153" height="46.5938" rx="2.5" ry="2.5" style="stroke:#D9D3D0;stroke-width:1.0;" width="56" x="1586.5" y="81.3125"/><text fill="#D9D3D0" font-family="Verdana" font-size="14" lengthAdjust="spacing" textLength="42" x="1593.5" y="101.3076">spaCy</text><text fill="#D9D3D0" font-family="Verdana" font-size="14" lengthAdjust="spacing" textLength="26" x="1601.5" y="117.6045">NLP</text><rect fill="#003153" height="46.5938" rx="2.5" ry="2.5" style="stroke:#D9D3D0;stroke-width:1.0;" width="56" x="1586.5" y="2473.7266"/><text fill="#D9D3D0" font-family="Verdana" font-size="14" lengthAdjust="spacing" textLength="42" x="1593.5" y="2493.7217">spaCy</text><text fill="#D9D3D0" font-family="Verdana" font-size="14" lengthAdjust="spacing" textLength="26" x="1601.5" y="2510.0186">NLP</text><rect fill="#003153" height="30.2969" rx="2.5" ry="2.5" style="stroke:#D9D3D0;stroke-width:1.0;" width="93" x="1672.5" y="97.6094"/><text fill="#D9D3D0" font-family="Verdana" font-size="14" lengthAdjust="spacing" textLength="79" x="1679.5" y="117.6045">WebSocket</text><rect fill="#003153" height="30.2969" rx="2.5" ry="2.5" style="stroke:#D9D3D0;stroke-width:1.0;" width="93" x="1672.5" y="2473.7266"/><text fill="#D9D3D0" font-family="Verdana" font-size="14" lengthAdjust="spacing" textLength="79" x="1679.5" y="2493.7217">WebSocket</text><text fill="#D9D3D0" font-family="Verdana" font-size="14" lengthAdjust="spacing" textLength="66" x="1785.5" y="125.6045">Database</text><path d="M1803.5,76.6094 C1803.5,66.6094 1821.5,66.6094 1821.5,66.6094 C1821.5,66.6094 1839.5,66.6094 1839.5,76.6094 L1839.5,102.6094 C1839.5,112.6094 1821.5,112.6094 1821.5,112.6094 C1821.5,112.6094 1803.5,112.6094 1803.5,102.6094 L1803.5,76.6094 " fill="#003153" style="stroke:#D9D3D0;stroke-width:1.5;"/><path d="M1803.5,76.6094 C1803.5,86.6094 1821.5,86.6094 1821.5,86.6094 C1821.5,86.6094 1839.5,86.6094 1839.5,76.6094 " fill="none" style="stroke:#D9D3D0;stroke-width:1.5;"/><text fill="#D9D3D0" font-family="Verdana" font-size="14" lengthAdjust="spacing" textLength="66" x="1785.5" y="2486.7217">Database</text><path d="M1803.5,2500.0234 C1803.5,2490.0234 1821.5,2490.0234 1821.5,2490.0234 C1821.5,2490.0234 1839.5,2490.0234 1839.5,2500.0234 L1839.5,2526.0234 C1839.5,2536.0234 1821.5,2536.0234 1821.5,2536.0234 C1821.5,2536.0234 1803.5,2536.0234 1803.5,2526.0234 L1803.5,2500.0234 " fill="#003153" style="stroke:#D9D3D0;stroke-width:1.5;"/><path d="M1803.5,2500.0234 C1803.5,2510.0234 1821.5,2510.0234 1821.5,2510.0234 C1821.5,2510.0234 1839.5,2510.0234 1839.5,2500.0234 " fill="none" style="stroke:#D9D3D0;stroke-width:1.5;"/><rect fill="#003153" height="46.5938" rx="2.5" ry="2.5" style="stroke:#D9D3D0;stroke-width:1.0;" width="65" x="1877.5" y="81.3125"/><text fill="#D9D3D0" font-family="Verdana" font-size="14" lengthAdjust="spacing" textLength="23" x="1898.5" y="101.3076">File</text><text fill="#D9D3D0" font-family="Verdana" font-size="14" lengthAdjust="spacing" textLength="51" x="1884.5" y="117.6045">System</text><rect fill="#003153" height="46.5938" rx="2.5" ry="2.5" style="stroke:#D9D3D0;stroke-width:1.0;" width="65" x="1877.5" y="2473.7266"/><text fill="#D9D3D0" font-family="Verdana" font-size="14" lengthAdjust="spacing" textLength="23" x="1898.5" y="2493.7217">File</text><text fill="#D9D3D0" font-family="Verdana" font-size="14" lengthAdjust="spacing" textLength="51" x="1884.5" y="2510.0186">System</text><rect fill="#003153" height="173.9297" style="stroke:#D9D3D0;stroke-width:1.0;" width="10" x="238" y="203.1719"/><rect fill="#003153" height="1942.8281" style="stroke:#D9D3D0;stroke-width:1.0;" width="10" x="238" y="481.6328"/><rect fill="#003153" height="85.3984" style="stroke:#D9D3D0;stroke-width:1.0;" width="10" x="506" y="247.4375"/><rect fill="#003153" height="1854.2969" style="stroke:#D9D3D0;stroke-width:1.0;" width="10" x="506" y="525.8984"/><rect fill="#003153" height="1780.8984" style="stroke:#D9D3D0;stroke-width:1.0;" width="10" x="724" y="555.0313"/><rect fill="#003153" height="85.3984" style="stroke:#D9D3D0;stroke-width:1.0;" width="10" x="973" y="700.6953"/><rect fill="#003153" height="158.7969" style="stroke:#D9D3D0;stroke-width:1.0;" width="10" x="973" y="948.8906"/><rect fill="#003153" height="158.7969" style="stroke:#D9D3D0;stroke-width:1.0;" width="10" x="1100" y="1958.0703"/><rect fill="#003153" height="274.3281" style="stroke:#D9D3D0;stroke-width:1.0;" width="10" x="1219.5" y="1285.6172"/><rect fill="#003153" height="12" style="stroke:#D9D3D0;stroke-width:1.0;" width="10" x="1407.5" y="993.1563"/><rect fill="#003153" height="12" style="stroke:#D9D3D0;stroke-width:1.0;" width="10" x="1512" y="2002.3359"/><rect fill="#003153" height="12" style="stroke:#D9D3D0;stroke-width:1.0;" width="10" x="1609.5" y="1461.5469"/><rect fill="#003153" height="12" style="stroke:#D9D3D0;stroke-width:1.0;" width="10" x="1714" y="599.2969"/><rect fill="#003153" height="12" style="stroke:#D9D3D0;stroke-width:1.0;" width="10" x="1714" y="847.4922"/><rect fill="#003153" height="12" style="stroke:#D9D3D0;stroke-width:1.0;" width="10" x="1714" y="1169.0859"/><rect fill="#003153" height="12" style="stroke:#D9D3D0;stroke-width:1.0;" width="10" x="1714" y="1651.6094"/><rect fill="#003153" height="12" style="stroke:#D9D3D0;stroke-width:1.0;" width="10" x="1714" y="1841.5391"/><rect fill="#003153" height="12" style="stroke:#D9D3D0;stroke-width:1.0;" width="10" x="1714" y="2178.2656"/><rect fill="#003153" height="12" style="stroke:#D9D3D0;stroke-width:1.0;" width="10" x="1816.5" y="1329.8828"/><rect fill="#003153" height="12" style="stroke:#D9D3D0;stroke-width:1.0;" width="10" x="1816.5" y="1403.2813"/><rect fill="#003153" height="12" style="stroke:#D9D3D0;stroke-width:1.0;" width="10" x="1816.5" y="2294.7969"/><rect fill="#003153" height="12" style="stroke:#D9D3D0;stroke-width:1.0;" width="10" x="1905" y="291.7031"/><rect fill="#003153" height="12" style="stroke:#D9D3D0;stroke-width:1.0;" width="10" x="1905" y="744.9609"/><rect fill="#003153" height="12" style="stroke:#D9D3D0;stroke-width:1.0;" width="10" x="1905" y="1066.5547"/><rect fill="#003153" height="12" style="stroke:#D9D3D0;stroke-width:1.0;" width="10" x="1905" y="1768.1406"/><rect fill="#003153" height="12" style="stroke:#D9D3D0;stroke-width:1.0;" width="10" x="1905" y="2075.7344"/><rect fill="#003153" height="3" style="stroke:#003153;stroke-width:1.0;" width="1952.5" x="5" y="159.4727"/><line style="stroke:#D9D3D0;stroke-width:0.5;" x1="5" x2="1957.5" y1="159.4727" y2="159.4727"/><line style="stroke:#D9D3D0;stroke-width:0.5;" x1="5" x2="1957.5" y1="162.4727" y2="162.4727"/><rect fill="#003153" height="23.1328" style="stroke:#D9D3D0;stroke-width:1.0;" width="118" x="922.25" y="148.9063"/><text fill="#D9D3D0" font-family="Verdana" font-size="13" font-weight="bold" lengthAdjust="spacing" textLength="99" x="928.25" y="164.9731">Video Upload</text><polygon fill="#D9D3D0" points="226,199.1719,236,203.1719,226,207.1719,230,203.1719" style="stroke:#D9D3D0;stroke-width:1.0;"/><line style="stroke:#D9D3D0;stroke-width:1.0;" x1="29" x2="232" y1="203.1719" y2="203.1719"/><text fill="#D9D3D0" font-family="Verdana" font-size="13" lengthAdjust="spacing" textLength="112" x="77.5" y="198.106">Uploads video file</text><polygon fill="#D9D3D0" points="494,243.4375,504,247.4375,494,251.4375,498,247.4375" style="stroke:#D9D3D0;stroke-width:1.0;"/><line style="stroke:#D9D3D0;stroke-width:1.0;" x1="248" x2="500" y1="247.4375" y2="247.4375"/><text fill="#D9D3D0" font-family="Verdana" font-size="13" lengthAdjust="spacing" textLength="239" x="257.5" y="227.2388">POST /api/videos/upload/series_name</text><text fill="#D9D3D0" font-family="Verdana" font-size="13" lengthAdjust="spacing" textLength="136" x="309" y="242.3716">(multipart/form-data)</text><polygon fill="#D9D3D0" points="1893,287.7031,1903,291.7031,1893,295.7031,1897,291.7031" style="stroke:#D9D3D0;stroke-width:1.0;"/><line style="stroke:#D9D3D0;stroke-width:1.0;" x1="516" x2="1899" y1="291.7031" y2="291.7031"/><text fill="#D9D3D0" font-family="Verdana" font-size="13" lengthAdjust="spacing" textLength="92" x="1164.5" y="271.5044">Save video file</text><text fill="#D9D3D0" font-family="Verdana" font-size="13" lengthAdjust="spacing" textLength="184" x="1118.5" y="286.6372">(/videos/series/episode.mp4)</text><polygon fill="#D9D3D0" points="527,299.7031,517,303.7031,527,307.7031,523,303.7031" style="stroke:#D9D3D0;stroke-width:1.0;"/><line style="stroke:#D9D3D0;stroke-width:1.0;stroke-dasharray:2.0,2.0;" x1="521" x2="1909" y1="303.7031" y2="303.7031"/><text fill="#D9D3D0" font-family="Verdana" font-size="13" lengthAdjust="spacing" textLength="63" x="1181.5" y="316.77">File saved</text><polygon fill="#D9D3D0" points="259,328.8359,249,332.8359,259,336.8359,255,332.8359" style="stroke:#D9D3D0;stroke-width:1.0;"/><line style="stroke:#D9D3D0;stroke-width:1.0;stroke-dasharray:2.0,2.0;" x1="253" x2="510" y1="332.8359" y2="332.8359"/><text fill="#D9D3D0" font-family="Verdana" font-size="13" lengthAdjust="spacing" textLength="46" x="356.5" y="345.9028">200 OK</text><text fill="#D9D3D0" font-family="Verdana" font-size="13" lengthAdjust="spacing" textLength="105" x="327" y="361.0356">{video_id, path}</text><polygon fill="#D9D3D0" points="40,373.1016,30,377.1016,40,381.1016,36,377.1016" style="stroke:#D9D3D0;stroke-width:1.0;"/><line style="stroke:#D9D3D0;stroke-width:1.0;stroke-dasharray:2.0,2.0;" x1="34" x2="242" y1="377.1016" y2="377.1016"/><text fill="#D9D3D0" font-family="Verdana" font-size="13" lengthAdjust="spacing" textLength="109" x="81.5" y="390.1685">Upload complete</text><rect fill="#003153" height="3" style="stroke:#003153;stroke-width:1.0;" width="1952.5" x="5" y="422.8008"/><line style="stroke:#D9D3D0;stroke-width:0.5;" x1="5" x2="1957.5" y1="422.8008" y2="422.8008"/><line style="stroke:#D9D3D0;stroke-width:0.5;" x1="5" x2="1957.5" y1="425.8008" y2="425.8008"/><rect fill="#003153" height="23.1328" style="stroke:#D9D3D0;stroke-width:1.0;" width="156" x="903.25" y="412.2344"/><text fill="#D9D3D0" font-family="Verdana" font-size="13" font-weight="bold" lengthAdjust="spacing" textLength="137" x="909.25" y="428.3013">Initiate Processing</text><polygon fill="#D9D3D0" points="226,477.6328,236,481.6328,226,485.6328,230,481.6328" style="stroke:#D9D3D0;stroke-width:1.0;"/><line style="stroke:#D9D3D0;stroke-width:1.0;" x1="29" x2="232" y1="481.6328" y2="481.6328"/><text fill="#D9D3D0" font-family="Verdana" font-size="13" lengthAdjust="spacing" textLength="112" x="77.5" y="461.4341">Starts processing</text><text fill="#D9D3D0" font-family="Verdana" font-size="13" lengthAdjust="spacing" textLength="190" x="38.5" y="476.5669">(start_time=0, end_time=30)</text><polygon fill="#D9D3D0" points="494,521.8984,504,525.8984,494,529.8984,498,525.8984" style="stroke:#D9D3D0;stroke-width:1.0;"/><line style="stroke:#D9D3D0;stroke-width:1.0;" x1="248" x2="500" y1="525.8984" y2="525.8984"/><text fill="#D9D3D0" font-family="Verdana" font-size="13" lengthAdjust="spacing" textLength="176" x="289" y="505.6997">POST /api/processing/chunk</text><text fill="#D9D3D0" font-family="Verdana" font-size="13" lengthAdjust="spacing" textLength="228" x="263" y="520.8325">{video_path, start_time, end_time}</text><polygon fill="#D9D3D0" points="712,551.0313,722,555.0313,712,559.0313,716,555.0313" style="stroke:#D9D3D0;stroke-width:1.0;"/><line style="stroke:#D9D3D0;stroke-width:1.0;" x1="516" x2="718" y1="555.0313" y2="555.0313"/><text fill="#D9D3D0" font-family="Verdana" font-size="13" lengthAdjust="spacing" textLength="154" x="543" y="549.9653">process_chunk(params)</text><polygon fill="#D9D3D0" points="1702,595.2969,1712,599.2969,1702,603.2969,1706,599.2969" style="stroke:#D9D3D0;stroke-width:1.0;"/><line style="stroke:#D9D3D0;stroke-width:1.0;" x1="734" x2="1708" y1="599.2969" y2="599.2969"/><text fill="#D9D3D0" font-family="Verdana" font-size="13" lengthAdjust="spacing" textLength="135" x="1156.5" y="579.0981">Update progress: 0%</text><text fill="#D9D3D0" font-family="Verdana" font-size="13" lengthAdjust="spacing" textLength="134" x="1157" y="594.231">"Starting processing"</text><polygon fill="#D9D3D0" points="259,607.2969,249,611.2969,259,615.2969,255,611.2969" style="stroke:#D9D3D0;stroke-width:1.0;"/><line style="stroke:#D9D3D0;stroke-width:1.0;stroke-dasharray:2.0,2.0;" x1="253" x2="1718" y1="611.2969" y2="611.2969"/><text fill="#D9D3D0" font-family="Verdana" font-size="13" lengthAdjust="spacing" textLength="111" x="928" y="624.3638">WebSocket event</text><rect fill="#003153" height="3" style="stroke:#003153;stroke-width:1.0;" width="1952.5" x="5" y="656.9961"/><line style="stroke:#D9D3D0;stroke-width:0.5;" x1="5" x2="1957.5" y1="656.9961" y2="656.9961"/><line style="stroke:#D9D3D0;stroke-width:0.5;" x1="5" x2="1957.5" y1="659.9961" y2="659.9961"/><rect fill="#003153" height="23.1328" style="stroke:#D9D3D0;stroke-width:1.0;" width="198" x="882.25" y="646.4297"/><text fill="#D9D3D0" font-family="Verdana" font-size="13" font-weight="bold" lengthAdjust="spacing" textLength="179" x="888.25" y="662.4966">Step 1: Audio Extraction</text><polygon fill="#D9D3D0" points="961,696.6953,971,700.6953,961,704.6953,965,700.6953" style="stroke:#D9D3D0;stroke-width:1.0;"/><line style="stroke:#D9D3D0;stroke-width:1.0;" x1="734" x2="967" y1="700.6953" y2="700.6953"/><text fill="#D9D3D0" font-family="Verdana" font-size="13" lengthAdjust="spacing" textLength="220" x="743.5" y="695.6294">extract_audio_chunk(video, 0-30s)</text><polygon fill="#D9D3D0" points="1893,740.9609,1903,744.9609,1893,748.9609,1897,744.9609" style="stroke:#D9D3D0;stroke-width:1.0;"/><line style="stroke:#D9D3D0;stroke-width:1.0;" x1="983" x2="1899" y1="744.9609" y2="744.9609"/><text fill="#D9D3D0" font-family="Verdana" font-size="13" lengthAdjust="spacing" textLength="106" x="1391" y="724.7622">Execute FFmpeg</text><text fill="#D9D3D0" font-family="Verdana" font-size="13" lengthAdjust="spacing" textLength="269" x="1309.5" y="739.895">ffmpeg -i video.mp4 -ss 0 -t 30 audio.mp3</text><polygon fill="#D9D3D0" points="994,752.9609,984,756.9609,994,760.9609,990,756.9609" style="stroke:#D9D3D0;stroke-width:1.0;"/><line style="stroke:#D9D3D0;stroke-width:1.0;stroke-dasharray:2.0,2.0;" x1="988" x2="1909" y1="756.9609" y2="756.9609"/><text fill="#D9D3D0" font-family="Verdana" font-size="13" lengthAdjust="spacing" textLength="68" x="1412.5" y="770.0278">audio.mp3</text><polygon fill="#D9D3D0" points="745,782.0938,735,786.0938,745,790.0938,741,786.0938" style="stroke:#D9D3D0;stroke-width:1.0;"/><line style="stroke:#D9D3D0;stroke-width:1.0;stroke-dasharray:2.0,2.0;" x1="739" x2="977" y1="786.0938" y2="786.0938"/><text fill="#D9D3D0" font-family="Verdana" font-size="13" lengthAdjust="spacing" textLength="96" x="808" y="799.1606">audio_file_path</text><polygon fill="#D9D3D0" points="1702,843.4922,1712,847.4922,1702,851.4922,1706,847.4922" style="stroke:#D9D3D0;stroke-width:1.0;"/><line style="stroke:#D9D3D0;stroke-width:1.0;" x1="734" x2="1708" y1="847.4922" y2="847.4922"/><text fill="#D9D3D0" font-family="Verdana" font-size="13" lengthAdjust="spacing" textLength="143" x="1152.5" y="827.2935">Update progress: 20%</text><text fill="#D9D3D0" font-family="Verdana" font-size="13" lengthAdjust="spacing" textLength="111" x="1168.5" y="842.4263">"Audio extracted"</text><polygon fill="#D9D3D0" points="259,855.4922,249,859.4922,259,863.4922,255,859.4922" style="stroke:#D9D3D0;stroke-width:1.0;"/><line style="stroke:#D9D3D0;stroke-width:1.0;stroke-dasharray:2.0,2.0;" x1="253" x2="1718" y1="859.4922" y2="859.4922"/><text fill="#D9D3D0" font-family="Verdana" font-size="13" lengthAdjust="spacing" textLength="111" x="928" y="872.5591">WebSocket event</text><rect fill="#003153" height="3" style="stroke:#003153;stroke-width:1.0;" width="1952.5" x="5" y="905.1914"/><line style="stroke:#D9D3D0;stroke-width:0.5;" x1="5" x2="1957.5" y1="905.1914" y2="905.1914"/><line style="stroke:#D9D3D0;stroke-width:0.5;" x1="5" x2="1957.5" y1="908.1914" y2="908.1914"/><rect fill="#003153" height="23.1328" style="stroke:#D9D3D0;stroke-width:1.0;" width="173" x="894.75" y="894.625"/><text fill="#D9D3D0" font-family="Verdana" font-size="13" font-weight="bold" lengthAdjust="spacing" textLength="154" x="900.75" y="910.6919">Step 2: Transcription</text><polygon fill="#D9D3D0" points="961,944.8906,971,948.8906,961,952.8906,965,948.8906" style="stroke:#D9D3D0;stroke-width:1.0;"/><line style="stroke:#D9D3D0;stroke-width:1.0;" x1="734" x2="967" y1="948.8906" y2="948.8906"/><text fill="#D9D3D0" font-family="Verdana" font-size="13" lengthAdjust="spacing" textLength="187" x="760" y="943.8247">transcribe_chunk(audio.mp3)</text><polygon fill="#D9D3D0" points="1395.5,989.1563,1405.5,993.1563,1395.5,997.1563,1399.5,993.1563" style="stroke:#D9D3D0;stroke-width:1.0;"/><line style="stroke:#D9D3D0;stroke-width:1.0;" x1="983" x2="1401.5" y1="993.1563" y2="993.1563"/><text fill="#D9D3D0" font-family="Verdana" font-size="13" lengthAdjust="spacing" textLength="141" x="1124.75" y="972.9575">transcribe(audio.mp3,</text><text fill="#D9D3D0" font-family="Verdana" font-size="13" lengthAdjust="spacing" textLength="101" x="1144.75" y="988.0903">language="de")</text><polygon fill="#D9D3D0" points="994,1001.1563,984,1005.1563,994,1009.1563,990,1005.1563" style="stroke:#D9D3D0;stroke-width:1.0;"/><line style="stroke:#D9D3D0;stroke-width:1.0;stroke-dasharray:2.0,2.0;" x1="988" x2="1411.5" y1="1005.1563" y2="1005.1563"/><text fill="#D9D3D0" font-family="Verdana" font-size="13" lengthAdjust="spacing" textLength="141" x="1127.25" y="1018.2231">[{text, start, end}, ...]</text><polygon fill="#D9D3D0" points="1893,1062.5547,1903,1066.5547,1893,1070.5547,1897,1066.5547" style="stroke:#D9D3D0;stroke-width:1.0;"/><line style="stroke:#D9D3D0;stroke-width:1.0;" x1="983" x2="1899" y1="1066.5547" y2="1066.5547"/><text fill="#D9D3D0" font-family="Verdana" font-size="13" lengthAdjust="spacing" textLength="82" x="1403" y="1046.356">Write SRT file</text><text fill="#D9D3D0" font-family="Verdana" font-size="13" lengthAdjust="spacing" textLength="100" x="1394" y="1061.4888">video_chunk.srt</text><polygon fill="#D9D3D0" points="994,1074.5547,984,1078.5547,994,1082.5547,990,1078.5547" style="stroke:#D9D3D0;stroke-width:1.0;"/><line style="stroke:#D9D3D0;stroke-width:1.0;stroke-dasharray:2.0,2.0;" x1="988" x2="1909" y1="1078.5547" y2="1078.5547"/><text fill="#D9D3D0" font-family="Verdana" font-size="13" lengthAdjust="spacing" textLength="66" x="1413.5" y="1091.6216">SRT saved</text><polygon fill="#D9D3D0" points="745,1103.6875,735,1107.6875,745,1111.6875,741,1107.6875" style="stroke:#D9D3D0;stroke-width:1.0;"/><line style="stroke:#D9D3D0;stroke-width:1.0;stroke-dasharray:2.0,2.0;" x1="739" x2="977" y1="1107.6875" y2="1107.6875"/><text fill="#D9D3D0" font-family="Verdana" font-size="13" lengthAdjust="spacing" textLength="78" x="817" y="1120.7544">srt_file_path</text><polygon fill="#D9D3D0" points="1702,1165.0859,1712,1169.0859,1702,1173.0859,1706,1169.0859" style="stroke:#D9D3D0;stroke-width:1.0;"/><line style="stroke:#D9D3D0;stroke-width:1.0;" x1="734" x2="1708" y1="1169.0859" y2="1169.0859"/><text fill="#D9D3D0" font-family="Verdana" font-size="13" lengthAdjust="spacing" textLength="143" x="1152.5" y="1148.8872">Update progress: 35%</text><text fill="#D9D3D0" font-family="Verdana" font-size="13" lengthAdjust="spacing" textLength="156" x="1146" y="1164.02">"Transcription complete"</text><polygon fill="#D9D3D0" points="259,1177.0859,249,1181.0859,259,1185.0859,255,1181.0859" style="stroke:#D9D3D0;stroke-width:1.0;"/><line style="stroke:#D9D3D0;stroke-width:1.0;stroke-dasharray:2.0,2.0;" x1="253" x2="1718" y1="1181.0859" y2="1181.0859"/><text fill="#D9D3D0" font-family="Verdana" font-size="13" lengthAdjust="spacing" textLength="111" x="928" y="1194.1528">WebSocket event</text><rect fill="#003153" height="3" style="stroke:#003153;stroke-width:1.0;" width="1952.5" x="5" y="1226.7852"/><line style="stroke:#D9D3D0;stroke-width:0.5;" x1="5" x2="1957.5" y1="1226.7852" y2="1226.7852"/><line style="stroke:#D9D3D0;stroke-width:0.5;" x1="5" x2="1957.5" y1="1229.7852" y2="1229.7852"/><rect fill="#003153" height="23.1328" style="stroke:#D9D3D0;stroke-width:1.0;" width="225" x="868.75" y="1216.2188"/><text fill="#D9D3D0" font-family="Verdana" font-size="13" font-weight="bold" lengthAdjust="spacing" textLength="206" x="874.75" y="1232.2856">Step 3: Vocabulary Filtering</text><polygon fill="#D9D3D0" points="1207.5,1281.6172,1217.5,1285.6172,1207.5,1289.6172,1211.5,1285.6172" style="stroke:#D9D3D0;stroke-width:1.0;"/><line style="stroke:#D9D3D0;stroke-width:1.0;" x1="734" x2="1213.5" y1="1285.6172" y2="1285.6172"/><text fill="#D9D3D0" font-family="Verdana" font-size="13" lengthAdjust="spacing" textLength="130" x="911.75" y="1265.4185">filter_vocabulary(srt,</text><text fill="#D9D3D0" font-family="Verdana" font-size="13" lengthAdjust="spacing" textLength="161" x="896.25" y="1280.5513">user_id, user_level="B1")</text><polygon fill="#D9D3D0" points="1804.5,1325.8828,1814.5,1329.8828,1804.5,1333.8828,1808.5,1329.8828" style="stroke:#D9D3D0;stroke-width:1.0;"/><line style="stroke:#D9D3D0;stroke-width:1.0;" x1="1229.5" x2="1810.5" y1="1329.8828" y2="1329.8828"/><text fill="#D9D3D0" font-family="Verdana" font-size="13" lengthAdjust="spacing" textLength="136" x="1455" y="1309.6841">SELECT known_words</text><text fill="#D9D3D0" font-family="Verdana" font-size="13" lengthAdjust="spacing" textLength="121" x="1462.5" y="1324.8169">WHERE user_id = ?</text><polygon fill="#D9D3D0" points="1240.5,1337.8828,1230.5,1341.8828,1240.5,1345.8828,1236.5,1341.8828" style="stroke:#D9D3D0;stroke-width:1.0;"/><line style="stroke:#D9D3D0;stroke-width:1.0;stroke-dasharray:2.0,2.0;" x1="1234.5" x2="1820.5" y1="1341.8828" y2="1341.8828"/><text fill="#D9D3D0" font-family="Verdana" font-size="13" lengthAdjust="spacing" textLength="94" x="1478.5" y="1354.9497">known_words[]</text><polygon fill="#D9D3D0" points="1804.5,1399.2813,1814.5,1403.2813,1804.5,1407.2813,1808.5,1403.2813" style="stroke:#D9D3D0;stroke-width:1.0;"/><line style="stroke:#D9D3D0;stroke-width:1.0;" x1="1229.5" x2="1810.5" y1="1403.2813" y2="1403.2813"/><text fill="#D9D3D0" font-family="Verdana" font-size="13" lengthAdjust="spacing" textLength="152" x="1447" y="1383.0825">SELECT word_difficulties</text><text fill="#D9D3D0" font-family="Verdana" font-size="13" lengthAdjust="spacing" textLength="134" x="1456" y="1398.2153">WHERE language = ?</text><polygon fill="#D9D3D0" points="1240.5,1411.2813,1230.5,1415.2813,1240.5,1419.2813,1236.5,1415.2813" style="stroke:#D9D3D0;stroke-width:1.0;"/><line style="stroke:#D9D3D0;stroke-width:1.0;stroke-dasharray:2.0,2.0;" x1="1234.5" x2="1820.5" y1="1415.2813" y2="1415.2813"/><text fill="#D9D3D0" font-family="Verdana" font-size="13" lengthAdjust="spacing" textLength="116" x="1467.5" y="1428.3481">word_difficulties{}</text><polygon fill="#D9D3D0" points="1597.5,1457.5469,1607.5,1461.5469,1597.5,1465.5469,1601.5,1461.5469" style="stroke:#D9D3D0;stroke-width:1.0;"/><line style="stroke:#D9D3D0;stroke-width:1.0;" x1="1229.5" x2="1603.5" y1="1461.5469" y2="1461.5469"/><text fill="#D9D3D0" font-family="Verdana" font-size="13" lengthAdjust="spacing" textLength="115" x="1362" y="1456.481">lemmatize(words)</text><polygon fill="#D9D3D0" points="1240.5,1469.5469,1230.5,1473.5469,1240.5,1477.5469,1236.5,1473.5469" style="stroke:#D9D3D0;stroke-width:1.0;"/><line style="stroke:#D9D3D0;stroke-width:1.0;stroke-dasharray:2.0,2.0;" x1="1234.5" x2="1613.5" y1="1473.5469" y2="1473.5469"/><text fill="#D9D3D0" font-family="Verdana" font-size="13" lengthAdjust="spacing" textLength="62" x="1391" y="1486.6138">lemmas[]</text><line style="stroke:#D9D3D0;stroke-width:1.0;" x1="1229.5" x2="1271.5" y1="1534.9453" y2="1534.9453"/><line style="stroke:#D9D3D0;stroke-width:1.0;" x1="1271.5" x2="1271.5" y1="1534.9453" y2="1547.9453"/><line style="stroke:#D9D3D0;stroke-width:1.0;" x1="1230.5" x2="1271.5" y1="1547.9453" y2="1547.9453"/><polygon fill="#D9D3D0" points="1240.5,1543.9453,1230.5,1547.9453,1240.5,1551.9453,1236.5,1547.9453" style="stroke:#D9D3D0;stroke-width:1.0;"/><text fill="#D9D3D0" font-family="Verdana" font-size="13" lengthAdjust="spacing" textLength="116" x="1260.5" y="1514.7466">categorize_words(</text><text fill="#D9D3D0" font-family="Verdana" font-size="13" lengthAdjust="spacing" textLength="164" x="1236.5" y="1529.8794">blocking, learning, known)</text><polygon fill="#D9D3D0" points="745,1555.9453,735,1559.9453,745,1563.9453,741,1559.9453" style="stroke:#D9D3D0;stroke-width:1.0;"/><line style="stroke:#D9D3D0;stroke-width:1.0;stroke-dasharray:2.0,2.0;" x1="739" x2="1223.5" y1="1559.9453" y2="1559.9453"/><text fill="#D9D3D0" font-family="Verdana" font-size="13" lengthAdjust="spacing" textLength="118" x="920.25" y="1573.0122">{blocking_words[],</text><text fill="#D9D3D0" font-family="Verdana" font-size="13" lengthAdjust="spacing" textLength="109" x="924.75" y="1588.145">learning_words[],</text><text fill="#D9D3D0" font-family="Verdana" font-size="13" lengthAdjust="spacing" textLength="123" x="917.75" y="1603.2778">filtered_subtitles[]}</text><polygon fill="#D9D3D0" points="1702,1647.6094,1712,1651.6094,1702,1655.6094,1706,1651.6094" style="stroke:#D9D3D0;stroke-width:1.0;"/><line style="stroke:#D9D3D0;stroke-width:1.0;" x1="734" x2="1708" y1="1651.6094" y2="1651.6094"/><text fill="#D9D3D0" font-family="Verdana" font-size="13" lengthAdjust="spacing" textLength="143" x="1152.5" y="1631.4106">Update progress: 65%</text><text fill="#D9D3D0" font-family="Verdana" font-size="13" lengthAdjust="spacing" textLength="129" x="1159.5" y="1646.5435">"Vocabulary filtered"</text><polygon fill="#D9D3D0" points="259,1659.6094,249,1663.6094,259,1667.6094,255,1663.6094" style="stroke:#D9D3D0;stroke-width:1.0;"/><line style="stroke:#D9D3D0;stroke-width:1.0;stroke-dasharray:2.0,2.0;" x1="253" x2="1718" y1="1663.6094" y2="1663.6094"/><text fill="#D9D3D0" font-family="Verdana" font-size="13" lengthAdjust="spacing" textLength="111" x="928" y="1676.6763">WebSocket event</text><rect fill="#003153" height="3" style="stroke:#003153;stroke-width:1.0;" width="1952.5" x="5" y="1709.3086"/><line style="stroke:#D9D3D0;stroke-width:0.5;" x1="5" x2="1957.5" y1="1709.3086" y2="1709.3086"/><line style="stroke:#D9D3D0;stroke-width:0.5;" x1="5" x2="1957.5" y1="1712.3086" y2="1712.3086"/><rect fill="#003153" height="23.1328" style="stroke:#D9D3D0;stroke-width:1.0;" width="220" x="871.25" y="1698.7422"/><text fill="#D9D3D0" font-family="Verdana" font-size="13" font-weight="bold" lengthAdjust="spacing" textLength="201" x="877.25" y="1714.8091">Step 4: Subtitle Generation</text><polygon fill="#D9D3D0" points="1893,1764.1406,1903,1768.1406,1893,1772.1406,1897,1768.1406" style="stroke:#D9D3D0;stroke-width:1.0;"/><line style="stroke:#D9D3D0;stroke-width:1.0;" x1="734" x2="1899" y1="1768.1406" y2="1768.1406"/><text fill="#D9D3D0" font-family="Verdana" font-size="13" lengthAdjust="spacing" textLength="104" x="1267.5" y="1747.9419">Write filtered_srt</text><text fill="#D9D3D0" font-family="Verdana" font-size="13" lengthAdjust="spacing" textLength="151" x="1244" y="1763.0747">video_chunk_filtered.srt</text><polygon fill="#D9D3D0" points="745,1776.1406,735,1780.1406,745,1784.1406,741,1780.1406" style="stroke:#D9D3D0;stroke-width:1.0;"/><line style="stroke:#D9D3D0;stroke-width:1.0;stroke-dasharray:2.0,2.0;" x1="739" x2="1909" y1="1780.1406" y2="1780.1406"/><text fill="#D9D3D0" font-family="Verdana" font-size="13" lengthAdjust="spacing" textLength="117" x="1263.5" y="1793.2075">Filtered SRT saved</text><polygon fill="#D9D3D0" points="1702,1837.5391,1712,1841.5391,1702,1845.5391,1706,1841.5391" style="stroke:#D9D3D0;stroke-width:1.0;"/><line style="stroke:#D9D3D0;stroke-width:1.0;" x1="734" x2="1708" y1="1841.5391" y2="1841.5391"/><text fill="#D9D3D0" font-family="Verdana" font-size="13" lengthAdjust="spacing" textLength="143" x="1152.5" y="1821.3403">Update progress: 85%</text><text fill="#D9D3D0" font-family="Verdana" font-size="13" lengthAdjust="spacing" textLength="185" x="1131.5" y="1836.4731">"Filtered subtitles generated"</text><polygon fill="#D9D3D0" points="259,1849.5391,249,1853.5391,259,1857.5391,255,1853.5391" style="stroke:#D9D3D0;stroke-width:1.0;"/><line style="stroke:#D9D3D0;stroke-width:1.0;stroke-dasharray:2.0,2.0;" x1="253" x2="1718" y1="1853.5391" y2="1853.5391"/><text fill="#D9D3D0" font-family="Verdana" font-size="13" lengthAdjust="spacing" textLength="111" x="928" y="1866.606">WebSocket event</text><rect fill="#003153" height="3" style="stroke:#003153;stroke-width:1.0;" width="1952.5" x="5" y="1899.2383"/><line style="stroke:#D9D3D0;stroke-width:0.5;" x1="5" x2="1957.5" y1="1899.2383" y2="1899.2383"/><line style="stroke:#D9D3D0;stroke-width:0.5;" x1="5" x2="1957.5" y1="1902.2383" y2="1902.2383"/><rect fill="#003153" height="23.1328" style="stroke:#D9D3D0;stroke-width:1.0;" width="158" x="902.25" y="1888.6719"/><text fill="#D9D3D0" font-family="Verdana" font-size="13" font-weight="bold" lengthAdjust="spacing" textLength="139" x="908.25" y="1904.7388">Step 5: Translation</text><polygon fill="#D9D3D0" points="1088,1954.0703,1098,1958.0703,1088,1962.0703,1092,1958.0703" style="stroke:#D9D3D0;stroke-width:1.0;"/><line style="stroke:#D9D3D0;stroke-width:1.0;" x1="734" x2="1094" y1="1958.0703" y2="1958.0703"/><text fill="#D9D3D0" font-family="Verdana" font-size="13" lengthAdjust="spacing" textLength="181" x="826.5" y="1937.8716">build_translation_segments(</text><text fill="#D9D3D0" font-family="Verdana" font-size="13" lengthAdjust="spacing" textLength="136" x="849" y="1953.0044">srt, blocking_words[])</text><polygon fill="#D9D3D0" points="1500,1998.3359,1510,2002.3359,1500,2006.3359,1504,2002.3359" style="stroke:#D9D3D0;stroke-width:1.0;"/><line style="stroke:#D9D3D0;stroke-width:1.0;" x1="1110" x2="1506" y1="2002.3359" y2="2002.3359"/><text fill="#D9D3D0" font-family="Verdana" font-size="13" lengthAdjust="spacing" textLength="96" x="1263" y="1982.1372">translate(word,</text><text fill="#D9D3D0" font-family="Verdana" font-size="13" lengthAdjust="spacing" textLength="123" x="1249.5" y="1997.27">src="de", tgt="es")</text><polygon fill="#D9D3D0" points="1121,2010.3359,1111,2014.3359,1121,2018.3359,1117,2014.3359" style="stroke:#D9D3D0;stroke-width:1.0;"/><line style="stroke:#D9D3D0;stroke-width:1.0;stroke-dasharray:2.0,2.0;" x1="1115" x2="1516" y1="2014.3359" y2="2014.3359"/><text fill="#D9D3D0" font-family="Verdana" font-size="13" lengthAdjust="spacing" textLength="68" x="1279.5" y="2027.4028">translation</text><polygon fill="#D9D3D0" points="1893,2071.7344,1903,2075.7344,1893,2079.7344,1897,2075.7344" style="stroke:#D9D3D0;stroke-width:1.0;"/><line style="stroke:#D9D3D0;stroke-width:1.0;" x1="1110" x2="1899" y1="2075.7344" y2="2075.7344"/><text fill="#D9D3D0" font-family="Verdana" font-size="13" lengthAdjust="spacing" textLength="128" x="1443.5" y="2055.5356">Write translation_srt</text><text fill="#D9D3D0" font-family="Verdana" font-size="13" lengthAdjust="spacing" textLength="175" x="1420" y="2070.6685">video_chunk_translation.srt</text><polygon fill="#D9D3D0" points="1121,2083.7344,1111,2087.7344,1121,2091.7344,1117,2087.7344" style="stroke:#D9D3D0;stroke-width:1.0;"/><line style="stroke:#D9D3D0;stroke-width:1.0;stroke-dasharray:2.0,2.0;" x1="1115" x2="1909" y1="2087.7344" y2="2087.7344"/><text fill="#D9D3D0" font-family="Verdana" font-size="13" lengthAdjust="spacing" textLength="140" x="1440" y="2100.8013">Translation SRT saved</text><polygon fill="#D9D3D0" points="745,2112.8672,735,2116.8672,745,2120.8672,741,2116.8672" style="stroke:#D9D3D0;stroke-width:1.0;"/><line style="stroke:#D9D3D0;stroke-width:1.0;stroke-dasharray:2.0,2.0;" x1="739" x2="1104" y1="2116.8672" y2="2116.8672"/><text fill="#D9D3D0" font-family="Verdana" font-size="13" lengthAdjust="spacing" textLength="129" x="855" y="2129.9341">translation_file_path</text><polygon fill="#D9D3D0" points="1702,2174.2656,1712,2178.2656,1702,2182.2656,1706,2178.2656" style="stroke:#D9D3D0;stroke-width:1.0;"/><line style="stroke:#D9D3D0;stroke-width:1.0;" x1="734" x2="1708" y1="2178.2656" y2="2178.2656"/><text fill="#D9D3D0" font-family="Verdana" font-size="13" lengthAdjust="spacing" textLength="151" x="1148.5" y="2158.0669">Update progress: 100%</text><text fill="#D9D3D0" font-family="Verdana" font-size="13" lengthAdjust="spacing" textLength="143" x="1152.5" y="2173.1997">"Processing complete"</text><polygon fill="#D9D3D0" points="259,2186.2656,249,2190.2656,259,2194.2656,255,2190.2656" style="stroke:#D9D3D0;stroke-width:1.0;"/><line style="stroke:#D9D3D0;stroke-width:1.0;stroke-dasharray:2.0,2.0;" x1="253" x2="1718" y1="2190.2656" y2="2190.2656"/><text fill="#D9D3D0" font-family="Verdana" font-size="13" lengthAdjust="spacing" textLength="111" x="928" y="2203.3325">WebSocket event</text><rect fill="#003153" height="3" style="stroke:#003153;stroke-width:1.0;" width="1952.5" x="5" y="2235.9648"/><line style="stroke:#D9D3D0;stroke-width:0.5;" x1="5" x2="1957.5" y1="2235.9648" y2="2235.9648"/><line style="stroke:#D9D3D0;stroke-width:0.5;" x1="5" x2="1957.5" y1="2238.9648" y2="2238.9648"/><rect fill="#003153" height="23.1328" style="stroke:#D9D3D0;stroke-width:1.0;" width="103" x="929.75" y="2225.3984"/><text fill="#D9D3D0" font-family="Verdana" font-size="13" font-weight="bold" lengthAdjust="spacing" textLength="84" x="935.75" y="2241.4653">Completion</text><polygon fill="#D9D3D0" points="1804.5,2290.7969,1814.5,2294.7969,1804.5,2298.7969,1808.5,2294.7969" style="stroke:#D9D3D0;stroke-width:1.0;"/><line style="stroke:#D9D3D0;stroke-width:1.0;" x1="734" x2="1810.5" y1="2294.7969" y2="2294.7969"/><text fill="#D9D3D0" font-family="Verdana" font-size="13" lengthAdjust="spacing" textLength="180" x="1185.25" y="2274.5981">UPDATE processing_session</text><text fill="#D9D3D0" font-family="Verdana" font-size="13" lengthAdjust="spacing" textLength="161" x="1194.75" y="2289.731">SET status = 'completed'</text><polygon fill="#D9D3D0" points="745,2302.7969,735,2306.7969,745,2310.7969,741,2306.7969" style="stroke:#D9D3D0;stroke-width:1.0;"/><line style="stroke:#D9D3D0;stroke-width:1.0;stroke-dasharray:2.0,2.0;" x1="739" x2="1820.5" y1="2306.7969" y2="2306.7969"/><text fill="#D9D3D0" font-family="Verdana" font-size="13" lengthAdjust="spacing" textLength="18" x="1268.75" y="2319.8638">OK</text><polygon fill="#D9D3D0" points="527,2331.9297,517,2335.9297,527,2339.9297,523,2335.9297" style="stroke:#D9D3D0;stroke-width:1.0;"/><line style="stroke:#D9D3D0;stroke-width:1.0;stroke-dasharray:2.0,2.0;" x1="521" x2="728" y1="2335.9297" y2="2335.9297"/><text fill="#D9D3D0" font-family="Verdana" font-size="13" lengthAdjust="spacing" textLength="133" x="556" y="2348.9966">Processing complete</text><text fill="#D9D3D0" font-family="Verdana" font-size="13" lengthAdjust="spacing" textLength="184" x="530.5" y="2364.1294">{filtered_srt, translation_srt}</text><polygon fill="#D9D3D0" points="259,2376.1953,249,2380.1953,259,2384.1953,255,2380.1953" style="stroke:#D9D3D0;stroke-width:1.0;"/><line style="stroke:#D9D3D0;stroke-width:1.0;stroke-dasharray:2.0,2.0;" x1="253" x2="510" y1="2380.1953" y2="2380.1953"/><text fill="#D9D3D0" font-family="Verdana" font-size="13" lengthAdjust="spacing" textLength="46" x="356.5" y="2393.2622">200 OK</text><text fill="#D9D3D0" font-family="Verdana" font-size="13" lengthAdjust="spacing" textLength="142" x="308.5" y="2408.395">{status: "completed"}</text><polygon fill="#D9D3D0" points="40,2420.4609,30,2424.4609,40,2428.4609,36,2424.4609" style="stroke:#D9D3D0;stroke-width:1.0;"/><line style="stroke:#D9D3D0;stroke-width:1.0;stroke-dasharray:2.0,2.0;" x1="34" x2="242" y1="2424.4609" y2="2424.4609"/><text fill="#D9D3D0" font-family="Verdana" font-size="13" lengthAdjust="spacing" textLength="104" x="84" y="2437.5278">Display subtitles</text><text fill="#D9D3D0" font-family="Verdana" font-size="13" lengthAdjust="spacing" textLength="103" x="84.5" y="2452.6606">and translations</text><!--SRC=[hLTRRzis57xNhpWpi3K1xDY9ss4Gu0rfudH5cyMedUQX7WnQEdQ8I9GcKdQp8FzzXwGkb6F77U0NYHBF_JiNyYTrZp72FCenpRXGddpW8cKPYq7YFpcA0AzHIhR4yuWl1GGe56OELOOoJOGigTvZbApFionPWyfoz3p5LOJmbOUOm2XB0YBZOWaZdcB41K87BkvpyG2JZ0aPP3nLF17mY_sEcFxoF1Qe98FMhSIi1Kn2JWkFz2iUy9G91QshB273H6Ys5yL7a-HyzD7iifGtDum1Kr5ObrWLQVdLf6sOEHLZp5OyGCEXYgqvRc6ndcnXe8qD-gz9mEPvnBB7gRZYaIfyNfXba_JkdiiKiwcuJaAC3DdQ_chItOnknvthYKkNfBbi4icKNP3AlpwF305z1eyRwd0-Je87L5QJz4Acs9n9XDPbiJ8xuNm371uXkVue5SRM5-bvWq6H5RTfbB0G1WFFqxX2v_SAGB_ObB0of1G3rCd0LnIr6cQlN6bUWjU7qSru0brQTWsZxEP6JfVaSvGpmM8ow2ZE8yMrfTr5aiKTxSrnBLxdYKSFOv3qOSnMwDX1_ALmAxMBAPSKtvCuVUk88LyN4ZgbPJeM84bKw8Ne4bbL3UVFUZsu-JGLJqRFZ8TjI9cwVtOvZPMr_yIlWrW63e8aJYEa57ELLN4Z33uAhhZ-wnJdTYZ6YY9L5GRHKGIa_ZTJFCP1hmr4PjVztl7_XAcMsWriEHPEQuVRKEkfjJnlXwegNBzSpep48zElf6DONU9UjTGIrbA7Bon8bjJXw4VlvwbecH3e2DNcjcfvL11hkG5XLJA0AsgTBWnhMmHZXIcS-d2UXpo1uNVg2e7fWHg5XbrrW_41BTsCQQx2GHEmDlGw_PxhfjENl7fTPlNmEmOvKLrTnIaIf8k5VaE7srJNoGmTAQ477GNz7XY5zBU_BSDT2sl2ZJntRMZYPPtHnMLWTnbT9_Q3TMRGiX4j8eNXOP0wypT6rQimrUi2eoegFmHGqSnTERM4zbH4J2npchg3LeWjHs8v18ht2so-FIaAIr5MfgAUst1oSl9tm-j2o9QakSiu4Oo_J8fEQ4lLU7WYCxKlDJJZrXQuEpL8wY4Ie_zE9qOJmB957YO_-ZxK0npi_2vxQiC-Ey_zuZrRLKn7v2jXgnkmQVbc4P7IQD1wV-h2N1m9FFlMGiCvHNVuUNWnWGUHhCLidMIXd8gxFuTVXb28X07yKGkXOHtEhQ-5HGxdjqP64EbsNPfs5lB5WWTwf6AbiKpGVIfV27XwtgtOd4nyY32EwLJrBnuPKvsusAEBUJQq68uDdooj8xqa3cXtcMGatuRYQ2hc4IK0WTacIImJPcM2TLmBQARjKybIXbCNRS7h_BBC6CvaFZS7PlhT2429zFuC_zLak9E2fUp3fFTRmhom4JwWm8njRu9rbwXzorIZKypAdLqjmudZLK6wktNiZynl9ZALf2hKiBH-72f4xtptyh9ZFkXZlm_pd4TqcAcfPnANCSdMsQRR06pcp-ROCDS7hrfg-VfaxzUxfZhQMbnWnaGRr58DMYZTJc9k0_fHzsfheMERww-XRwgj4M_uimcwi_dggB3gtK2-FZMi6SsiSGtPFJni2FVdpsdFd2gSS_B19iU55RGrNNIRlHrTda-6pgcJyeJUva8vdEWnhWYw0RmfBGhVREksJcXkFctsLqTfTJn_wIgTozs2Rc-2tUXQpW7xbSkDjTw7LcLywuTkE9TqF8dOOrt8Ky68m358Rhtr_0S0]--></g></svg>